<?xml version="1.0" encoding="UTF-8" standalone="no"?>
<!-- Created with Inkscape (http://www.inkscape.org/) -->

<svg
   xmlns:dc="http://purl.org/dc/elements/1.1/"
   xmlns:cc="http://creativecommons.org/ns#"
   xmlns:rdf="http://www.w3.org/1999/02/22-rdf-syntax-ns#"
   xmlns:svg="http://www.w3.org/2000/svg"
   xmlns="http://www.w3.org/2000/svg"
   xmlns:sodipodi="http://sodipodi.sourceforge.net/DTD/sodipodi-0.dtd"
   xmlns:inkscape="http://www.inkscape.org/namespaces/inkscape"
   version="1.0"
   width="573.86664"
   height="416"
   viewBox="0 0 595.28 841.89"
   id="svg2"
   sodipodi:version="0.32"
   inkscape:version="0.92.0 r15299"
   sodipodi:docname="Perpendicular_Recording_Diagram.svg"
   inkscape:output_extension="org.inkscape.output.svg.inkscape">
  <metadata
     id="metadata4578">
    <rdf:RDF>
      <cc:Work
         rdf:about="">
        <dc:format>image/svg+xml</dc:format>
        <dc:type
           rdf:resource="http://purl.org/dc/dcmitype/StillImage" />
      </cc:Work>
    </rdf:RDF>
  </metadata>
  <sodipodi:namedview
     inkscape:window-height="768"
     inkscape:window-width="1280"
     inkscape:pageshadow="2"
     inkscape:pageopacity="0.0"
     guidetolerance="10.0"
     gridtolerance="10.0"
     objecttolerance="10.0"
     borderopacity="1.0"
     bordercolor="#666666"
     pagecolor="#ffffff"
     id="base"
     showgrid="false"
     inkscape:zoom="1.0055762"
     inkscape:cx="324.73942"
     inkscape:cy="222.01728"
     inkscape:window-x="-4"
     inkscape:window-y="-5"
     inkscape:current-layer="svg2"
     showguides="true"
     inkscape:guide-bbox="true"
     inkscape:window-maximized="0" />
  <defs
     id="defs245">
    <inkscape:perspective
       sodipodi:type="inkscape:persp3d"
       inkscape:vp_x="0 : 195 : 1"
       inkscape:vp_y="0 : 1000 : 0"
       inkscape:vp_z="538.00003 : 195 : 1"
       inkscape:persp3d-origin="269.00001 : 130 : 1"
       id="perspective4580" />
  </defs>
  <rect
     width="1204.311"
     height="865.69025"
     x="-302.36871"
     y="-8.0855341"
     id="rect4187"
     style="opacity:1;fill:#ffffff;fill-opacity:1;stroke:none;stroke-width:1;stroke-linecap:round;stroke-linejoin:miter;stroke-miterlimit:4;stroke-dasharray:none;stroke-opacity:1" />
  <path
     style="fill:none;fill-rule:evenodd;stroke:#000080;stroke-width:2.15869236;stroke-linecap:butt;stroke-linejoin:miter;stroke-miterlimit:4;stroke-dasharray:none;stroke-opacity:1"
     d="m -50.076288,268.25512 c -5.858761,4.51706 -10.912499,9.16761 -19.588836,9.12357 -8.810504,-0.0447 -14.803435,-5.72459 -20.393856,-10.19693"
     id="path2759"
     sodipodi:nodetypes="czz"
     inkscape:connector-curvature="0" />
  <path
     style="fill:none;fill-rule:evenodd;stroke:#000080;stroke-width:2.15869236;stroke-linecap:butt;stroke-linejoin:miter;stroke-miterlimit:4;stroke-dasharray:none;stroke-opacity:1"
     d="m -50.076287,251.6944 c -5.858761,-4.51706 -10.912499,-9.16761 -19.588836,-9.12357 -8.810504,0.0447 -14.803435,5.72459 -20.393856,10.19693"
     id="path2765"
     sodipodi:nodetypes="czz"
     inkscape:connector-curvature="0" />
  <g
     transform="matrix(2.69385,0,0,0.8453587,-211.252,286.25449)"
     id="g4"
     style="fill:#c0c0c0;fill-rule:nonzero;stroke:none;stroke-width:0.80000001;stroke-linecap:butt;stroke-linejoin:miter;stroke-dasharray:none">
    <path
       d="m 0,0 c 0,0 0,38.8 0,38.8 0,0 35.2002,0 35.2002,0 0,0 35.2002,0 35.2002,0 0,0 35.1256,0 35.1256,0 0,0 35.2,0 35.2,0 0,0 35.2,0 35.2,0 0,0 35.199,0 35.199,0 0,0 35.2,0 35.2,0 0,0 35.226,0 35.226,0 0,0 0,-38.8 0,-38.8 0,0 -35.226,0 -35.226,0 0,0 -35.2,0 -35.2,0 0,0 -35.199,0 -35.199,0 0,0 -35.2,0 -35.2,0 0,0 -35.2,0 -35.2,0 0,0 -35.1256,0 -35.1256,0 0,0 -35.2002,0 -35.2002,0 C 35.2002,0 0,0 0,0 Z"
       id="path6"
       inkscape:connector-curvature="0" />
  </g>
  <g
     transform="matrix(2.69385,0,0,2.69385,-210.289,720.345)"
     id="g8"
     style="fill:#c0c0c0;fill-rule:nonzero;stroke:none;stroke-width:0.80000001;stroke-linecap:butt;stroke-linejoin:miter;stroke-dasharray:none">
    <path
       d="m 0,0 c 0,0 279.986,0 279.986,0 0,0 0,36.292 0,36.292 0,0 -279.986,0 -279.986,0 C 0,36.292 0,0 0,0 Z"
       id="path10"
       inkscape:connector-curvature="0" />
  </g>
  <g
     transform="matrix(2.69385,0,0,2.69385,-212.496,718.139)"
     id="g12"
     style="fill:#000000;fill-rule:nonzero;stroke:none;stroke-width:0.80000001;stroke-linecap:butt;stroke-linejoin:miter;stroke-dasharray:none">
    <path
       d="m 0,0 c 0,0 0,0.825 0,0.825 0,0 0,36.275 0,36.275 0,0 0,0.825 0,0.825 0,0 0.8252,0 0.8252,0 0,0 279.9748,0 279.9748,0 0,0 0.825,0 0.825,0 0,0 0,-0.825 0,-0.825 0,0 0,-36.275 0,-36.275 0,0 0,-0.825 0,-0.825 0,0 -0.825,0 -0.825,0 C 280.8,0 0.8252,0 0.8252,0 0.8252,0 0,0 0,0 Z m 1.625,1.625 c 0,0 278.375,0 278.375,0 0,0 0,34.675 0,34.675 0,0 -278.375,0 -278.375,0 0,0 0,-34.675 0,-34.675 z"
       id="path14"
       inkscape:connector-curvature="0" />
  </g>
  <g
     transform="matrix(2.69385,0,0,0.8453587,-212.43,285.87419)"
     id="g16"
     style="fill:#000000;fill-rule:nonzero;stroke:none;stroke-width:0.80000001;stroke-linecap:butt;stroke-linejoin:miter;stroke-dasharray:none">
    <path
       d="m 0,-1.0785534 c 0,0 0,1.52855001 0,1.52855001 0,0 0,38.80000139 0,38.80000139 0,0 0,1.27383 0,1.27383 0,0 0.4502,0 0.4502,0 H 282 c 0,0 0.425,0 0.425,0 0,0 0,-1.27383 0,-1.27383 0,0 0,-38.80000139 0,-38.80000139 0,0 0,-1.52855001 0,-1.52855001 0,0 -0.425,0 -0.425,0 H 36.241473 c 0,0 -0.4502,0 -0.4502,0 0,0 -0.4502,0 -0.4502,0 0,0 -34.890873,0 -34.890873,0 0,0 -0.4502,0 -0.4502,0 z m 0.875,1.97855001 c 0,0 34.3252,0 34.3252,0 0,0 0,37.90000139 0,37.90000139 0,0 -34.3252,0 -34.3252,0 0,0 0,-37.90000139 0,-37.90000139 z m 35.2256,0 c 0,0 34.2246,0 34.2246,0 0,0 0,37.90000139 0,37.90000139 0,0 -34.2246,0 -34.2246,0 0,0 0,-37.90000139 0,-37.90000139 z m 35.2002,0 c 0,0 34.2242,0 34.2242,0 0,0 0,37.90000139 0,37.90000139 0,0 -34.2242,0 -34.2242,0 0,0 0,-37.90000139 0,-37.90000139 z m 35.1242,0 c 0,0 34.3,0 34.3,0 0,0 0,37.90000139 0,37.90000139 0,0 -34.3,0 -34.3,0 0,0 0,-37.90000139 0,-37.90000139 z m 35.2,0 c 0,0 34.3,0 34.3,0 0,0 0,37.90000139 0,37.90000139 0,0 -34.3,0 -34.3,0 0,0 0,-37.90000139 0,-37.90000139 z m 35.2,0 c 0,0 34.3,0 34.3,0 0,0 0,37.90000139 0,37.90000139 0,0 -34.3,0 -34.3,0 0,0 0,-37.90000139 0,-37.90000139 z m 35.2,0 c 0,0 34.3,0 34.3,0 0,0 0,37.90000139 0,37.90000139 0,0 -34.3,0 -34.3,0 0,0 0,-37.90000139 0,-37.90000139 z m 35.2,0 c 0,0 34.325,0 34.325,0 0,0 0,37.90000139 0,37.90000139 0,0 -34.325,0 -34.325,0 0,0 0,-37.90000139 0,-37.90000139 z"
       id="path18"
       sodipodi:nodetypes="cccccccccccccccccccccccccccccccccccccccccccccccccccccccc"
       inkscape:connector-curvature="0" />
  </g>
  <g
     transform="matrix(2.69385,0,0,2.69385,-212.43,718.139)"
     id="g48"
     style="fill:#000000;fill-rule:nonzero;stroke:none;stroke-width:0.80000001;stroke-linecap:butt;stroke-linejoin:miter;stroke-dasharray:none">
    <path
       d="m 0,0 c 0,0 0,0.475 0,0.475 0,0 0,18.925 0,18.925 0,0 0,0.475 0,0.475 0,0 0.4756,0 0.4756,0 0,0 8.7744,0 8.7744,0 0,0 0.4756,0 0.4756,0 0,0 0,-0.475 0,-0.475 0,0 0,-18.925 0,-18.925 0,0 0,-0.475 0,-0.475 C 9.7256,0 9.25,0 9.25,0 9.25,0 0.4756,0 0.4756,0 0.4756,0 0,0 0,0 Z m 0.9502,0.95 c 0,0 7.8252,0 7.8252,0 0,0 0,17.975 0,17.975 0,0 -7.8252,0 -7.8252,0 0,0 0,-17.975 0,-17.975 z"
       id="path50"
       inkscape:connector-curvature="0" />
  </g>
  <g
     transform="matrix(2.69385,0,0,2.69385,-188.791,718.139)"
     id="g52"
     style="fill:#000000;fill-rule:nonzero;stroke:none;stroke-width:0.80000001;stroke-linecap:butt;stroke-linejoin:miter;stroke-dasharray:none">
    <path
       d="M 0,19.875 C 0,19.875 0,19.4 0,19.4 0,19.4 0,0.475 0,0.475 0,0.475 0,0 0,0 c 0,0 0.4746,0 0.4746,0 0,0 8.7754,0 8.7754,0 0,0 0.4746,0 0.4746,0 0,0 0,0.475 0,0.475 0,0 0,18.925 0,18.925 0,0 0,0.475 0,0.475 0,0 -0.4746,0 -0.4746,0 0,0 -8.7754,0 -8.7754,0 0,0 -0.4746,0 -0.4746,0 z m 0.9502,-0.95 c 0,0 7.8252,0 7.8252,0 0,0 0,-17.975 0,-17.975 0,0 -7.8252,0 -7.8252,0 0,0 0,17.975 0,17.975 z"
       id="path54"
       inkscape:connector-curvature="0" />
  </g>
  <g
     transform="matrix(2.69385,0,0,2.69385,-165.152,718.139)"
     id="g56"
     style="fill:#000000;fill-rule:nonzero;stroke:none;stroke-width:0.80000001;stroke-linecap:butt;stroke-linejoin:miter;stroke-dasharray:none">
    <path
       d="m 0,0 c 0,0 0,0.475 0,0.475 0,0 0,18.925 0,18.925 0,0 0,0.475 0,0.475 0,0 0.4746,0 0.4746,0 0,0 8.75,0 8.75,0 0,0 0.5,0 0.5,0 0,0 0,-0.475 0,-0.475 0,0 0,-18.925 0,-18.925 0,0 0,-0.475 0,-0.475 0,0 -0.5,0 -0.5,0 0,0 -8.75,0 -8.75,0 C 0.4746,0 0,0 0,0 Z m 0.9492,0.95 c 0,0 7.8008,0 7.8008,0 0,0 0,17.975 0,17.975 0,0 -7.8008,0 -7.8008,0 0,0 0,-17.975 0,-17.975 z"
       id="path58"
       inkscape:connector-curvature="0" />
  </g>
  <g
     transform="matrix(2.69385,0,0,2.69385,-141.58,718.139)"
     id="g60"
     style="fill:#000000;fill-rule:nonzero;stroke:none;stroke-width:0.80000001;stroke-linecap:butt;stroke-linejoin:miter;stroke-dasharray:none">
    <path
       d="M 0,19.875 C 0,19.875 0,19.4 0,19.4 0,19.4 0,0.475 0,0.475 0,0.475 0,0 0,0 c 0,0 0.4746,0 0.4746,0 0,0 8.7754,0 8.7754,0 0,0 0.4746,0 0.4746,0 0,0 0,0.475 0,0.475 0,0 0,18.925 0,18.925 0,0 0,0.475 0,0.475 0,0 -0.4746,0 -0.4746,0 0,0 -8.7754,0 -8.7754,0 0,0 -0.4746,0 -0.4746,0 z m 0.9746,-0.95 c 0,0 7.7998,0 7.7998,0 0,0 0,-17.975 0,-17.975 0,0 -7.7998,0 -7.7998,0 0,0 0,17.975 0,17.975 z"
       id="path62"
       inkscape:connector-curvature="0" />
  </g>
  <g
     transform="matrix(2.69385,0,0,2.69385,-117.942,718.139)"
     id="g64"
     style="fill:#000000;fill-rule:nonzero;stroke:none;stroke-width:0.80000001;stroke-linecap:butt;stroke-linejoin:miter;stroke-dasharray:none">
    <path
       d="m 0,0 c 0,0 0,0.475 0,0.475 0,0 0,18.925 0,18.925 0,0 0,0.475 0,0.475 0,0 0.4756,0 0.4756,0 0,0 8.7744,0 8.7744,0 0,0 0.4756,0 0.4756,0 0,0 0,-0.475 0,-0.475 0,0 0,-18.925 0,-18.925 0,0 0,-0.475 0,-0.475 C 9.7256,0 9.25,0 9.25,0 9.25,0 0.4756,0 0.4756,0 0.4756,0 0,0 0,0 Z m 0.9502,0.95 c 0,0 7.8252,0 7.8252,0 0,0 0,17.975 0,17.975 0,0 -7.8252,0 -7.8252,0 0,0 0,-17.975 0,-17.975 z"
       id="path66"
       inkscape:connector-curvature="0" />
  </g>
  <g
     transform="matrix(2.69385,0,0,2.69385,-94.3033,718.139)"
     id="g68"
     style="fill:#000000;fill-rule:nonzero;stroke:none;stroke-width:0.80000001;stroke-linecap:butt;stroke-linejoin:miter;stroke-dasharray:none">
    <path
       d="M 0,19.875 C 0,19.875 0,19.4 0,19.4 0,19.4 0,0.475 0,0.475 0,0.475 0,0 0,0 c 0,0 0.4746,0 0.4746,0 0,0 8.7754,0 8.7754,0 0,0 0.4746,0 0.4746,0 0,0 0,0.475 0,0.475 0,0 0,18.925 0,18.925 0,0 0,0.475 0,0.475 0,0 -0.4746,0 -0.4746,0 0,0 -8.7754,0 -8.7754,0 0,0 -0.4746,0 -0.4746,0 z m 0.9502,-0.95 c 0,0 7.8242,0 7.8242,0 0,0 0,-17.975 0,-17.975 0,0 -7.8242,0 -7.8242,0 0,0 0,17.975 0,17.975 z"
       id="path70"
       inkscape:connector-curvature="0" />
  </g>
  <g
     transform="matrix(2.69385,0,0,2.69385,-70.6674,718.139)"
     id="g72"
     style="fill:#000000;fill-rule:nonzero;stroke:none;stroke-width:0.80000001;stroke-linecap:butt;stroke-linejoin:miter;stroke-dasharray:none">
    <path
       d="M 0,19.875 C 0,19.875 0,19.4 0,19.4 0,19.4 0,0.475 0,0.475 0,0.475 0,0 0,0 c 0,0 0.4756,0 0.4756,0 0,0 8.7744,0 8.7744,0 0,0 0.4756,0 0.4756,0 0,0 0,0.475 0,0.475 0,0 0,18.925 0,18.925 0,0 0,0.475 0,0.475 0,0 -0.4756,0 -0.4756,0 0,0 -8.7744,0 -8.7744,0 0,0 -0.4756,0 -0.4756,0 z m 0.9502,-0.95 c 0,0 7.8252,0 7.8252,0 0,0 0,-17.975 0,-17.975 0,0 -7.8252,0 -7.8252,0 0,0 0,17.975 0,17.975 z"
       id="path74"
       inkscape:connector-curvature="0" />
  </g>
  <g
     transform="matrix(2.69385,0,0,2.69385,-47.0262,718.139)"
     id="g76"
     style="fill:#000000;fill-rule:nonzero;stroke:none;stroke-width:0.80000001;stroke-linecap:butt;stroke-linejoin:miter;stroke-dasharray:none">
    <path
       d="M 0,19.875 C 0,19.875 0,19.4 0,19.4 0,19.4 0,0.475 0,0.475 0,0.475 0,0 0,0 c 0,0 0.4746,0 0.4746,0 0,0 8.75,0 8.75,0 0,0 0.4756,0 0.4756,0 0,0 0,0.475 0,0.475 0,0 0,18.925 0,18.925 0,0 0,0.475 0,0.475 0,0 -0.4756,0 -0.4756,0 0,0 -8.75,0 -8.75,0 0,0 -0.4746,0 -0.4746,0 z m 0.9502,-0.95 c 0,0 7.7998,0 7.7998,0 0,0 0,-17.975 0,-17.975 0,0 -7.7998,0 -7.7998,0 0,0 0,17.975 0,17.975 z"
       id="path78"
       inkscape:connector-curvature="0" />
  </g>
  <g
     transform="matrix(2.69385,0,0,2.69385,-23.455,718.139)"
     id="g80"
     style="fill:#000000;fill-rule:nonzero;stroke:none;stroke-width:0.80000001;stroke-linecap:butt;stroke-linejoin:miter;stroke-dasharray:none">
    <path
       d="m 0,0 c 0,0 0,0.475 0,0.475 0,0 0,18.925 0,18.925 0,0 0,0.475 0,0.475 0,0 0.4746,0 0.4746,0 0,0 8.7754,0 8.7754,0 0,0 0.475,0 0.475,0 0,0 0,-0.475 0,-0.475 0,0 0,-18.925 0,-18.925 0,0 0,-0.475 0,-0.475 0,0 -0.475,0 -0.475,0 0,0 -8.7754,0 -8.7754,0 C 0.4746,0 0,0 0,0 Z m 0.9502,0.95 c 0,0 7.8248,0 7.8248,0 0,0 0,17.975 0,17.975 0,0 -7.8248,0 -7.8248,0 0,0 0,-17.975 0,-17.975 z"
       id="path82"
       inkscape:connector-curvature="0" />
  </g>
  <g
     transform="matrix(2.69385,0,0,2.69385,0.183578,718.139)"
     id="g84"
     style="fill:#000000;fill-rule:nonzero;stroke:none;stroke-width:0.80000001;stroke-linecap:butt;stroke-linejoin:miter;stroke-dasharray:none">
    <path
       d="M 0,19.875 C 0,19.875 0,19.4 0,19.4 0,19.4 0,0.475 0,0.475 0,0.475 0,0 0,0 c 0,0 0.475,0 0.475,0 0,0 8.775,0 8.775,0 0,0 0.475,0 0.475,0 0,0 0,0.475 0,0.475 0,0 0,18.925 0,18.925 0,0 0,0.475 0,0.475 0,0 -0.475,0 -0.475,0 0,0 -8.775,0 -8.775,0 0,0 -0.475,0 -0.475,0 z m 0.95,-0.95 c 0,0 7.825,0 7.825,0 0,0 0,-17.975 0,-17.975 0,0 -7.825,0 -7.825,0 0,0 0,17.975 0,17.975 z"
       id="path86"
       inkscape:connector-curvature="0" />
  </g>
  <g
     transform="matrix(2.69385,0,0,2.69385,23.8221,718.139)"
     id="g88"
     style="fill:#000000;fill-rule:nonzero;stroke:none;stroke-width:0.80000001;stroke-linecap:butt;stroke-linejoin:miter;stroke-dasharray:none">
    <path
       d="M 0,19.875 C 0,19.875 0,19.4 0,19.4 0,19.4 0,0.475 0,0.475 0,0.475 0,0 0,0 c 0,0 0.475,0 0.475,0 0,0 8.775,0 8.775,0 0,0 0.475,0 0.475,0 0,0 0,0.475 0,0.475 0,0 0,18.925 0,18.925 0,0 0,0.475 0,0.475 0,0 -0.475,0 -0.475,0 0,0 -8.775,0 -8.775,0 0,0 -0.475,0 -0.475,0 z m 0.95,-0.95 c 0,0 7.8,0 7.8,0 0,0 0,-17.975 0,-17.975 0,0 -7.8,0 -7.8,0 0,0 0,17.975 0,17.975 z"
       id="path90"
       inkscape:connector-curvature="0" />
  </g>
  <g
     transform="matrix(2.69385,0,0,2.69385,47.3933,718.139)"
     id="g92"
     style="fill:#000000;fill-rule:nonzero;stroke:none;stroke-width:0.80000001;stroke-linecap:butt;stroke-linejoin:miter;stroke-dasharray:none">
    <path
       d="m 0,0 c 0,0 0,0.475 0,0.475 0,0 0,18.925 0,18.925 0,0 0,0.475 0,0.475 0,0 0.5,0 0.5,0 0,0 8.75,0 8.75,0 0,0 0.475,0 0.475,0 0,0 0,-0.475 0,-0.475 0,0 0,-18.925 0,-18.925 0,0 0,-0.475 0,-0.475 C 9.725,0 9.25,0 9.25,0 9.25,0 0.5,0 0.5,0 0.5,0 0,0 0,0 Z m 0.975,0.95 c 0,0 7.8,0 7.8,0 0,0 0,17.975 0,17.975 0,0 -7.8,0 -7.8,0 0,0 0,-17.975 0,-17.975 z"
       id="path94"
       inkscape:connector-curvature="0" />
  </g>
  <g
     transform="matrix(2.69385,0,0,2.69385,71.0319,718.139)"
     id="g96"
     style="fill:#000000;fill-rule:nonzero;stroke:none;stroke-width:0.80000001;stroke-linecap:butt;stroke-linejoin:miter;stroke-dasharray:none">
    <path
       d="M 0,19.875 C 0,19.875 0,19.4 0,19.4 0,19.4 0,0.475 0,0.475 0,0.475 0,0 0,0 c 0,0 0.475,0 0.475,0 0,0 8.775,0 8.775,0 0,0 0.475,0 0.475,0 0,0 0,0.475 0,0.475 0,0 0,18.925 0,18.925 0,0 0,0.475 0,0.475 0,0 -0.475,0 -0.475,0 0,0 -8.775,0 -8.775,0 0,0 -0.475,0 -0.475,0 z m 0.95,-0.95 c 0,0 7.825,0 7.825,0 0,0 0,-17.975 0,-17.975 0,0 -7.825,0 -7.825,0 0,0 0,17.975 0,17.975 z"
       id="path98"
       inkscape:connector-curvature="0" />
  </g>
  <g
     transform="matrix(2.69385,0,0,2.69385,94.6704,718.139)"
     id="g100"
     style="fill:#000000;fill-rule:nonzero;stroke:none;stroke-width:0.80000001;stroke-linecap:butt;stroke-linejoin:miter;stroke-dasharray:none">
    <path
       d="m 0,0 c 0,0 0,0.475 0,0.475 0,0 0,18.925 0,18.925 0,0 0,0.475 0,0.475 0,0 0.475,0 0.475,0 0,0 8.775,0 8.775,0 0,0 0.475,0 0.475,0 0,0 0,-0.475 0,-0.475 0,0 0,-18.925 0,-18.925 0,0 0,-0.475 0,-0.475 0,0 -0.475,0 -0.475,0 0,0 -8.775,0 -8.775,0 C 0.475,0 0,0 0,0 Z m 0.95,0.95 c 0,0 7.825,0 7.825,0 0,0 0,17.975 0,17.975 0,0 -7.825,0 -7.825,0 0,0 0,-17.975 0,-17.975 z"
       id="path102"
       inkscape:connector-curvature="0" />
  </g>
  <g
     transform="matrix(2.69385,0,0,2.69385,118.309,718.139)"
     id="g104"
     style="fill:#000000;fill-rule:nonzero;stroke:none;stroke-width:0.80000001;stroke-linecap:butt;stroke-linejoin:miter;stroke-dasharray:none">
    <path
       d="m 0,0 c 0,0 0,0.475 0,0.475 0,0 0,18.925 0,18.925 0,0 0,0.475 0,0.475 0,0 0.475,0 0.475,0 0,0 8.775,0 8.775,0 0,0 0.475,0 0.475,0 0,0 0,-0.475 0,-0.475 0,0 0,-18.925 0,-18.925 0,0 0,-0.475 0,-0.475 0,0 -0.475,0 -0.475,0 0,0 -8.775,0 -8.775,0 C 0.475,0 0,0 0,0 Z m 0.95,0.95 c 0,0 7.825,0 7.825,0 0,0 0,17.975 0,17.975 0,0 -7.825,0 -7.825,0 0,0 0,-17.975 0,-17.975 z"
       id="path106"
       inkscape:connector-curvature="0" />
  </g>
  <g
     transform="matrix(2.69385,0,0,2.69385,141.948,718.139)"
     id="g108"
     style="fill:#000000;fill-rule:nonzero;stroke:none;stroke-width:0.80000001;stroke-linecap:butt;stroke-linejoin:miter;stroke-dasharray:none">
    <path
       d="M 0,19.875 C 0,19.875 0,19.4 0,19.4 0,19.4 0,0.475 0,0.475 0,0.475 0,0 0,0 c 0,0 0.475,0 0.475,0 0,0 8.75,0 8.75,0 0,0 0.475,0 0.475,0 0,0 0,0.475 0,0.475 0,0 0,18.925 0,18.925 0,0 0,0.475 0,0.475 0,0 -0.475,0 -0.475,0 0,0 -8.75,0 -8.75,0 0,0 -0.475,0 -0.475,0 z m 0.95,-0.95 c 0,0 7.8,0 7.8,0 0,0 0,-17.975 0,-17.975 0,0 -7.8,0 -7.8,0 0,0 0,17.975 0,17.975 z"
       id="path110"
       inkscape:connector-curvature="0" />
  </g>
  <g
     transform="matrix(2.69385,0,0,2.69385,165.586,718.139)"
     id="g112"
     style="fill:#000000;fill-rule:nonzero;stroke:none;stroke-width:0.80000001;stroke-linecap:butt;stroke-linejoin:miter;stroke-dasharray:none">
    <path
       d="m 0,0 c 0,0 0,0.475 0,0.475 0,0 0,18.925 0,18.925 0,0 0,0.475 0,0.475 0,0 0.475,0 0.475,0 0,0 8.75,0 8.75,0 0,0 0.475,0 0.475,0 0,0 0,-0.475 0,-0.475 0,0 0,-18.925 0,-18.925 0,0 0,-0.475 0,-0.475 0,0 -0.475,0 -0.475,0 0,0 -8.75,0 -8.75,0 C 0.475,0 0,0 0,0 Z m 0.95,0.95 c 0,0 7.8,0 7.8,0 0,0 0,17.975 0,17.975 0,0 -7.8,0 -7.8,0 0,0 0,-17.975 0,-17.975 z"
       id="path114"
       inkscape:connector-curvature="0" />
  </g>
  <g
     transform="matrix(2.69385,0,0,2.69385,189.157,718.139)"
     id="g116"
     style="fill:#000000;fill-rule:nonzero;stroke:none;stroke-width:0.80000001;stroke-linecap:butt;stroke-linejoin:miter;stroke-dasharray:none">
    <path
       d="M 0,19.875 C 0,19.875 0,19.4 0,19.4 0,19.4 0,0.475 0,0.475 0,0.475 0,0 0,0 c 0,0 0.475,0 0.475,0 0,0 8.775,0 8.775,0 0,0 0.475,0 0.475,0 0,0 0,0.475 0,0.475 0,0 0,18.925 0,18.925 0,0 0,0.475 0,0.475 0,0 -0.475,0 -0.475,0 0,0 -8.775,0 -8.775,0 0,0 -0.475,0 -0.475,0 z m 0.95,-0.95 c 0,0 7.825,0 7.825,0 0,0 0,-17.975 0,-17.975 0,0 -7.825,0 -7.825,0 0,0 0,17.975 0,17.975 z"
       id="path118"
       inkscape:connector-curvature="0" />
  </g>
  <g
     transform="matrix(2.69385,0,0,2.69385,212.796,718.139)"
     id="g120"
     style="fill:#000000;fill-rule:nonzero;stroke:none;stroke-width:0.80000001;stroke-linecap:butt;stroke-linejoin:miter;stroke-dasharray:none">
    <path
       d="M 0,19.875 C 0,19.875 0,19.4 0,19.4 0,19.4 0,0.475 0,0.475 0,0.475 0,0 0,0 c 0,0 0.475,0 0.475,0 0,0 8.775,0 8.775,0 0,0 0.475,0 0.475,0 0,0 0,0.475 0,0.475 0,0 0,18.925 0,18.925 0,0 0,0.475 0,0.475 0,0 -0.475,0 -0.475,0 0,0 -8.775,0 -8.775,0 0,0 -0.475,0 -0.475,0 z m 0.95,-0.95 c 0,0 7.825,0 7.825,0 0,0 0,-17.975 0,-17.975 0,0 -7.825,0 -7.825,0 0,0 0,17.975 0,17.975 z"
       id="path122"
       inkscape:connector-curvature="0" />
  </g>
  <g
     transform="matrix(2.69385,0,0,2.69385,236.434,718.139)"
     id="g124"
     style="fill:#000000;fill-rule:nonzero;stroke:none;stroke-width:0.80000001;stroke-linecap:butt;stroke-linejoin:miter;stroke-dasharray:none">
    <path
       d="m 0,0 c 0,0 0,0.475 0,0.475 0,0 0,18.925 0,18.925 0,0 0,0.475 0,0.475 0,0 0.475,0 0.475,0 0,0 8.775,0 8.775,0 0,0 0.475,0 0.475,0 0,0 0,-0.475 0,-0.475 0,0 0,-18.925 0,-18.925 0,0 0,-0.475 0,-0.475 0,0 -0.475,0 -0.475,0 0,0 -8.775,0 -8.775,0 C 0.475,0 0,0 0,0 Z m 0.95,0.95 c 0,0 7.825,0 7.825,0 0,0 0,17.975 0,17.975 0,0 -7.825,0 -7.825,0 0,0 0,-17.975 0,-17.975 z"
       id="path126"
       inkscape:connector-curvature="0" />
  </g>
  <g
     transform="matrix(2.69385,0,0,2.69385,260.073,718.139)"
     id="g128"
     style="fill:#000000;fill-rule:nonzero;stroke:none;stroke-width:0.80000001;stroke-linecap:butt;stroke-linejoin:miter;stroke-dasharray:none">
    <path
       d="M 0,19.875 C 0,19.875 0,19.4 0,19.4 0,19.4 0,0.475 0,0.475 0,0.475 0,0 0,0 c 0,0 0.475,0 0.475,0 0,0 8.75,0 8.75,0 0,0 0.5,0 0.5,0 0,0 0,0.475 0,0.475 0,0 0,18.925 0,18.925 0,0 0,0.475 0,0.475 0,0 -0.5,0 -0.5,0 0,0 -8.75,0 -8.75,0 0,0 -0.475,0 -0.475,0 z m 0.95,-0.95 c 0,0 7.8,0 7.8,0 0,0 0,-17.975 0,-17.975 0,0 -7.8,0 -7.8,0 0,0 0,17.975 0,17.975 z"
       id="path130"
       inkscape:connector-curvature="0" />
  </g>
  <g
     transform="matrix(2.69385,0,0,2.69385,283.644,718.139)"
     id="g132"
     style="fill:#000000;fill-rule:nonzero;stroke:none;stroke-width:0.80000001;stroke-linecap:butt;stroke-linejoin:miter;stroke-dasharray:none">
    <path
       d="m 0,0 c 0,0 0,0.475 0,0.475 0,0 0,18.925 0,18.925 0,0 0,0.475 0,0.475 0,0 0.475,0 0.475,0 0,0 8.775,0 8.775,0 0,0 0.475,0 0.475,0 0,0 0,-0.475 0,-0.475 0,0 0,-18.925 0,-18.925 0,0 0,-0.475 0,-0.475 0,0 -0.475,0 -0.475,0 0,0 -8.775,0 -8.775,0 C 0.475,0 0,0 0,0 Z m 0.975,0.95 c 0,0 7.8,0 7.8,0 0,0 0,17.975 0,17.975 0,0 -7.8,0 -7.8,0 0,0 0,-17.975 0,-17.975 z"
       id="path134"
       inkscape:connector-curvature="0" />
  </g>
  <g
     transform="matrix(2.69385,0,0,2.69385,307.283,718.139)"
     id="g136"
     style="fill:#000000;fill-rule:nonzero;stroke:none;stroke-width:0.80000001;stroke-linecap:butt;stroke-linejoin:miter;stroke-dasharray:none">
    <path
       d="M 0,19.875 C 0,19.875 0,19.4 0,19.4 0,19.4 0,0.475 0,0.475 0,0.475 0,0 0,0 c 0,0 0.475,0 0.475,0 0,0 8.775,0 8.775,0 0,0 0.475,0 0.475,0 0,0 0,0.475 0,0.475 0,0 0,18.925 0,18.925 0,0 0,0.475 0,0.475 0,0 -0.475,0 -0.475,0 0,0 -8.775,0 -8.775,0 0,0 -0.475,0 -0.475,0 z m 0.95,-0.95 c 0,0 7.825,0 7.825,0 0,0 0,-17.975 0,-17.975 0,0 -7.825,0 -7.825,0 0,0 0,17.975 0,17.975 z"
       id="path138"
       inkscape:connector-curvature="0" />
  </g>
  <g
     transform="matrix(2.69385,0,0,2.69385,330.921,718.139)"
     id="g140"
     style="fill:#000000;fill-rule:nonzero;stroke:none;stroke-width:0.80000001;stroke-linecap:butt;stroke-linejoin:miter;stroke-dasharray:none">
    <path
       d="M 0,19.875 C 0,19.875 0,19.4 0,19.4 0,19.4 0,0.475 0,0.475 0,0.475 0,0 0,0 c 0,0 0.475,0 0.475,0 0,0 8.775,0 8.775,0 0,0 0.475,0 0.475,0 0,0 0,0.475 0,0.475 0,0 0,18.925 0,18.925 0,0 0,0.475 0,0.475 0,0 -0.475,0 -0.475,0 0,0 -8.775,0 -8.775,0 0,0 -0.475,0 -0.475,0 z m 0.95,-0.95 c 0,0 7.825,0 7.825,0 0,0 0,-17.975 0,-17.975 0,0 -7.825,0 -7.825,0 0,0 0,17.975 0,17.975 z"
       id="path142"
       inkscape:connector-curvature="0" />
  </g>
  <g
     transform="matrix(2.69385,0,0,2.69385,354.56,718.139)"
     id="g144"
     style="fill:#000000;fill-rule:nonzero;stroke:none;stroke-width:0.80000001;stroke-linecap:butt;stroke-linejoin:miter;stroke-dasharray:none">
    <path
       d="m 0,0 c 0,0 0,0.475 0,0.475 0,0 0,18.925 0,18.925 0,0 0,0.475 0,0.475 0,0 0.475,0 0.475,0 0,0 8.75,0 8.75,0 0,0 0.475,0 0.475,0 0,0 0,-0.475 0,-0.475 0,0 0,-18.925 0,-18.925 0,0 0,-0.475 0,-0.475 0,0 -0.475,0 -0.475,0 0,0 -8.75,0 -8.75,0 C 0.475,0 0,0 0,0 Z m 0.95,0.95 c 0,0 7.8,0 7.8,0 0,0 0,17.975 0,17.975 0,0 -7.8,0 -7.8,0 0,0 0,-17.975 0,-17.975 z"
       id="path146"
       inkscape:connector-curvature="0" />
  </g>
  <g
     transform="matrix(2.69385,0,0,2.69385,378.131,718.139)"
     id="g148"
     style="fill:#000000;fill-rule:nonzero;stroke:none;stroke-width:0.80000001;stroke-linecap:butt;stroke-linejoin:miter;stroke-dasharray:none">
    <path
       d="M 0,19.875 C 0,19.875 0,19.4 0,19.4 0,19.4 0,0.475 0,0.475 0,0.475 0,0 0,0 c 0,0 0.475,0 0.475,0 0,0 8.775,0 8.775,0 0,0 0.475,0 0.475,0 0,0 0,0.475 0,0.475 0,0 0,18.925 0,18.925 0,0 0,0.475 0,0.475 0,0 -0.475,0 -0.475,0 0,0 -8.775,0 -8.775,0 0,0 -0.475,0 -0.475,0 z m 0.95,-0.95 c 0,0 7.825,0 7.825,0 0,0 0,-17.975 0,-17.975 0,0 -7.825,0 -7.825,0 0,0 0,17.975 0,17.975 z"
       id="path150"
       inkscape:connector-curvature="0" />
  </g>
  <g
     transform="matrix(2.69385,0,0,2.69385,401.769,718.139)"
     id="g152"
     style="fill:#000000;fill-rule:nonzero;stroke:none;stroke-width:0.80000001;stroke-linecap:butt;stroke-linejoin:miter;stroke-dasharray:none">
    <path
       d="M 0,19.875 C 0,19.875 0,19.4 0,19.4 0,19.4 0,0.475 0,0.475 0,0.475 0,0 0,0 c 0,0 0.475,0 0.475,0 0,0 8.775,0 8.775,0 0,0 0.475,0 0.475,0 0,0 0,0.475 0,0.475 0,0 0,18.925 0,18.925 0,0 0,0.475 0,0.475 0,0 -0.475,0 -0.475,0 0,0 -8.775,0 -8.775,0 0,0 -0.475,0 -0.475,0 z m 0.95,-0.95 c 0,0 7.825,0 7.825,0 0,0 0,-17.975 0,-17.975 0,0 -7.825,0 -7.825,0 0,0 0,17.975 0,17.975 z"
       id="path154"
       inkscape:connector-curvature="0" />
  </g>
  <g
     transform="matrix(2.69385,0,0,2.69385,425.408,718.139)"
     id="g156"
     style="fill:#000000;fill-rule:nonzero;stroke:none;stroke-width:0.80000001;stroke-linecap:butt;stroke-linejoin:miter;stroke-dasharray:none">
    <path
       d="m 0,0 c 0,0 0,0.475 0,0.475 0,0 0,18.925 0,18.925 0,0 0,0.475 0,0.475 0,0 0.475,0 0.475,0 0,0 8.775,0 8.775,0 0,0 0.475,0 0.475,0 0,0 0,-0.475 0,-0.475 0,0 0,-18.925 0,-18.925 0,0 0,-0.475 0,-0.475 0,0 -0.475,0 -0.475,0 0,0 -8.775,0 -8.775,0 C 0.475,0 0,0 0,0 Z m 0.95,0.95 c 0,0 7.825,0 7.825,0 0,0 0,17.975 0,17.975 0,0 -7.825,0 -7.825,0 0,0 0,-17.975 0,-17.975 z"
       id="path158"
       inkscape:connector-curvature="0" />
  </g>
  <g
     transform="matrix(2.69385,0,0,2.69385,449.047,718.139)"
     id="g160"
     style="fill:#000000;fill-rule:nonzero;stroke:none;stroke-width:0.80000001;stroke-linecap:butt;stroke-linejoin:miter;stroke-dasharray:none">
    <path
       d="M 0,19.875 C 0,19.875 0,19.4 0,19.4 0,19.4 0,0.475 0,0.475 0,0.475 0,0 0,0 c 0,0 0.475,0 0.475,0 0,0 8.775,0 8.775,0 0,0 0.475,0 0.475,0 0,0 0,0.475 0,0.475 0,0 0,18.925 0,18.925 0,0 0,0.475 0,0.475 0,0 -0.475,0 -0.475,0 0,0 -8.775,0 -8.775,0 0,0 -0.475,0 -0.475,0 z m 0.95,-0.95 c 0,0 7.8,0 7.8,0 0,0 0,-17.975 0,-17.975 0,0 -7.8,0 -7.8,0 0,0 0,17.975 0,17.975 z"
       id="path162"
       inkscape:connector-curvature="0" />
  </g>
  <g
     transform="matrix(2.69385,0,0,2.69385,472.618,718.139)"
     id="g164"
     style="fill:#000000;fill-rule:nonzero;stroke:none;stroke-width:0.80000001;stroke-linecap:butt;stroke-linejoin:miter;stroke-dasharray:none">
    <path
       d="m 0,0 c 0,0 0,0.475 0,0.475 0,0 0,18.925 0,18.925 0,0 0,0.475 0,0.475 0,0 0.5,0 0.5,0 0,0 8.75,0 8.75,0 0,0 0.475,0 0.475,0 0,0 0,-0.475 0,-0.475 0,0 0,-18.925 0,-18.925 0,0 0,-0.475 0,-0.475 C 9.725,0 9.25,0 9.25,0 9.25,0 0.5,0 0.5,0 0.5,0 0,0 0,0 Z m 0.975,0.95 c 0,0 7.8,0 7.8,0 0,0 0,17.975 0,17.975 0,0 -7.8,0 -7.8,0 0,0 0,-17.975 0,-17.975 z"
       id="path166"
       inkscape:connector-curvature="0" />
  </g>
  <g
     transform="matrix(2.69385,0,0,2.69385,496.256,718.139)"
     id="g168"
     style="fill:#000000;fill-rule:nonzero;stroke:none;stroke-width:0.80000001;stroke-linecap:butt;stroke-linejoin:miter;stroke-dasharray:none">
    <path
       d="m 0,0 c 0,0 0,0.475 0,0.475 0,0 0,18.925 0,18.925 0,0 0,0.475 0,0.475 0,0 0.475,0 0.475,0 0,0 8.775,0 8.775,0 0,0 0.475,0 0.475,0 0,0 0,-0.475 0,-0.475 0,0 0,-18.925 0,-18.925 0,0 0,-0.475 0,-0.475 0,0 -0.475,0 -0.475,0 0,0 -8.775,0 -8.775,0 C 0.475,0 0,0 0,0 Z m 0.95,0.95 c 0,0 7.825,0 7.825,0 0,0 0,17.975 0,17.975 0,0 -7.825,0 -7.825,0 0,0 0,-17.975 0,-17.975 z"
       id="path170"
       inkscape:connector-curvature="0" />
  </g>
  <g
     transform="matrix(2.69385,0,0,2.69385,519.895,718.139)"
     id="g172"
     style="fill:#000000;fill-rule:nonzero;stroke:none;stroke-width:0.80000001;stroke-linecap:butt;stroke-linejoin:miter;stroke-dasharray:none">
    <path
       d="M 0,19.875 C 0,19.875 0,19.4 0,19.4 0,19.4 0,0.475 0,0.475 0,0.475 0,0 0,0 c 0,0 0.475,0 0.475,0 0,0 8.775,0 8.775,0 0,0 0.475,0 0.475,0 0,0 0,0.475 0,0.475 0,0 0,18.925 0,18.925 0,0 0,0.475 0,0.475 0,0 -0.475,0 -0.475,0 0,0 -8.775,0 -8.775,0 0,0 -0.475,0 -0.475,0 z m 0.95,-0.95 c 0,0 7.825,0 7.825,0 0,0 0,-17.975 0,-17.975 0,0 -7.825,0 -7.825,0 0,0 0,17.975 0,17.975 z"
       id="path174"
       inkscape:connector-curvature="0" />
  </g>
  <g
     transform="matrix(2.69385,0,0,2.69385,-205.964,725.749)"
     id="g176"
     style="fill:#000000;fill-rule:evenodd;stroke:none;stroke-width:0.80000001;stroke-linecap:butt;stroke-linejoin:miter;stroke-dasharray:none">
    <path
       d="m 11.1504,0 c 0,0 -0.2002,0.25 -0.2002,0.25 0,0 -1.9004,2.6 -1.9004,2.6 0,0 -0.25,0.4 -0.25,0.4 0,0 0.4502,0 0.4502,0 0,0 0.7002,0 0.7002,0 0,0 0,10.6 0,10.6 0,0 0,0.25 0,0.25 0,0 0.25,0 0.25,0 0,0 1.8994,0 1.8994,0 0,0 0.25,0 0.25,0 0,0 0,-0.25 0,-0.25 0,0 0,-10.6 0,-10.6 0,0 0.8506,0 0.8506,0 0,0 0.5,0 0.5,0 0,0 -0.2998,-0.4 -0.2998,-0.4 0,0 -2.1006,-2.6 -2.1006,-2.6 0,0 -0.1494,-0.25 -0.1494,-0.25 z m 17.5,0 c 0,0 -0.2002,0.25 -0.2002,0.25 0,0 -1.8506,2.6 -1.8506,2.6 0,0 -0.25,0.4 -0.25,0.4 0,0 0.4502,0 0.4502,0 0,0 0.7002,0 0.7002,0 0,0 0,10.6 0,10.6 0,0 0,0.25 0,0.25 0,0 0.2002,0 0.2002,0 0,0 1.9502,0 1.9502,0 0,0 0.1992,0 0.1992,0 0,0 0,-0.25 0,-0.25 0,0 0,-10.6 0,-10.6 0,0 0.9004,0 0.9004,0 0,0 0.4502,0 0.4502,0 0,0 -0.2998,-0.4 -0.2998,-0.4 0,0 -2.0508,-2.6 -2.0508,-2.6 0,0 -0.1992,-0.25 -0.1992,-0.25 z M 46.2002,0 C 46.2002,0 46,0.25 46,0.25 c 0,0 -1.9004,2.6 -1.9004,2.6 0,0 -0.25,0.4 -0.25,0.4 0,0 0.4502,0 0.4502,0 0,0 0.75,0 0.75,0 0,0 0,10.6 0,10.6 0,0 0,0.25 0,0.25 0,0 0.2002,0 0.2002,0 0,0 1.9502,0 1.9502,0 0,0 0.2002,0 0.2002,0 0,0 0,-0.25 0,-0.25 0,0 0,-10.6 0,-10.6 0,0 0.8994,0 0.8994,0 0,0 0.4502,0 0.4502,0 0,0 -0.2998,-0.4 -0.2998,-0.4 0,0 -2.0498,-2.6 -2.0498,-2.6 0,0 -0.2002,-0.25 -0.2002,-0.25 z M 55,0 c 0,0 -0.2002,0.25 -0.2002,0.25 0,0 -1.8994,2.6 -1.8994,2.6 0,0 -0.25,0.4 -0.25,0.4 0,0 0.4492,0 0.4492,0 0,0 0.7002,0 0.7002,0 0,0 0,10.6 0,10.6 0,0 0,0.25 0,0.25 0,0 0.25,0 0.25,0 0,0 1.9004,0 1.9004,0 0,0 0.25,0 0.25,0 0,0 0,-0.25 0,-0.25 0,0 0,-10.6 0,-10.6 0,0 0.8496,0 0.8496,0 0,0 0.4502,0 0.4502,0 0,0 -0.2998,-0.4 -0.2998,-0.4 0,0 -2.0498,-2.6 -2.0498,-2.6 C 55.1504,0.25 55,0 55,0 Z m 8.75,0 c 0,0 -0.2002,0.25 -0.2002,0.25 0,0 -1.8994,2.6 -1.8994,2.6 0,0 -0.25,0.4 -0.25,0.4 0,0 0.4492,0 0.4492,0 0,0 0.75,0 0.75,0 0,0 0,10.6 0,10.6 0,0 0,0.25 0,0.25 0,0 0.2002,0 0.2002,0 0,0 1.9004,0 1.9004,0 0,0 0.25,0 0.25,0 0,0 0,-0.25 0,-0.25 0,0 0,-10.6 0,-10.6 0,0 0.8496,0 0.8496,0 0,0 0.5,0 0.5,0 0,0 -0.2998,-0.4 -0.2998,-0.4 0,0 -2.0996,-2.6 -2.0996,-2.6 C 63.9004,0.25 63.75,0 63.75,0 Z M 81.3,0 c 0,0 -0.2,0.25 -0.2,0.25 0,0 -1.9,2.6 -1.9,2.6 0,0 -0.25,0.4 -0.25,0.4 0,0 0.45,0 0.45,0 0,0 0.7,0 0.7,0 0,0 0,10.6 0,10.6 0,0 0,0.25 0,0.25 0,0 0.25,0 0.25,0 0,0 1.9,0 1.9,0 0,0 0.25,0 0.25,0 0,0 0,-0.25 0,-0.25 0,0 0,-10.6 0,-10.6 0,0 0.85,0 0.85,0 0,0 0.5,0 0.5,0 0,0 -0.3,-0.4 -0.3,-0.4 0,0 -2.1,-2.6 -2.1,-2.6 C 81.45,0.25 81.3,0 81.3,0 Z m 8.75,0 c 0,0 -0.2,0.25 -0.2,0.25 0,0 -1.9,2.6 -1.9,2.6 0,0 -0.25,0.4 -0.25,0.4 0,0 0.45,0 0.45,0 0,0 0.75,0 0.75,0 0,0 0,10.6 0,10.6 0,0 0,0.25 0,0.25 0,0 0.2,0 0.2,0 0,0 1.9,0 1.9,0 0,0 0.25,0 0.25,0 0,0 0,-0.25 0,-0.25 0,0 0,-10.6 0,-10.6 0,0 0.85,0 0.85,0 0,0 0.5,0 0.5,0 0,0 -0.3,-0.4 -0.3,-0.4 0,0 -2.1,-2.6 -2.1,-2.6 0,0 -0.15,-0.25 -0.15,-0.25 z m 17.55,0 c 0,0 -0.2,0.25 -0.2,0.25 0,0 -1.9,2.6 -1.9,2.6 0,0 -0.25,0.4 -0.25,0.4 0,0 0.45,0 0.45,0 0,0 0.7,0 0.7,0 0,0 0,10.6 0,10.6 0,0 0,0.25 0,0.25 0,0 0.25,0 0.25,0 0,0 1.9,0 1.9,0 0,0 0.25,0 0.25,0 0,0 0,-0.25 0,-0.25 0,0 0,-10.6 0,-10.6 0,0 0.85,0 0.85,0 0,0 0.5,0 0.5,0 0,0 -0.3,-0.4 -0.3,-0.4 0,0 -2.1,-2.6 -2.1,-2.6 0,0 -0.15,-0.25 -0.15,-0.25 z m 26.3,0 c 0,0 -0.2,0.25 -0.2,0.25 0,0 -1.9,2.6 -1.9,2.6 0,0 -0.25,0.4 -0.25,0.4 0,0 0.45,0 0.45,0 0,0 0.75,0 0.75,0 0,0 0,10.6 0,10.6 0,0 0,0.25 0,0.25 0,0 0.2,0 0.2,0 0,0 1.9,0 1.9,0 0,0 0.25,0 0.25,0 0,0 0,-0.25 0,-0.25 0,0 0,-10.6 0,-10.6 0,0 0.85,0 0.85,0 0,0 0.5,0 0.5,0 0,0 -0.3,-0.4 -0.3,-0.4 0,0 -2.1,-2.6 -2.1,-2.6 0,0 -0.15,-0.25 -0.15,-0.25 z m 17.55,0 c 0,0 -0.2,0.25 -0.2,0.25 0,0 -1.9,2.6 -1.9,2.6 0,0 -0.25,0.4 -0.25,0.4 0,0 0.45,0 0.45,0 0,0 0.7,0 0.7,0 0,0 0,10.6 0,10.6 0,0 0,0.25 0,0.25 0,0 0.25,0 0.25,0 0,0 1.9,0 1.9,0 0,0 0.25,0 0.25,0 0,0 0,-0.25 0,-0.25 0,0 0,-10.6 0,-10.6 0,0 0.85,0 0.85,0 0,0 0.5,0 0.5,0 0,0 -0.3,-0.4 -0.3,-0.4 0,0 -2.1,-2.6 -2.1,-2.6 0,0 -0.15,-0.25 -0.15,-0.25 z m 8.75,0 c 0,0 -0.2,0.25 -0.2,0.25 0,0 -1.9,2.6 -1.9,2.6 0,0 -0.25,0.4 -0.25,0.4 0,0 0.45,0 0.45,0 0,0 0.75,0 0.75,0 0,0 0,10.6 0,10.6 0,0 0,0.25 0,0.25 0,0 0.2,0 0.2,0 0,0 1.95,0 1.95,0 0,0 0.2,0 0.2,0 0,0 0,-0.25 0,-0.25 0,0 0,-10.6 0,-10.6 0,0 0.9,0 0.9,0 0,0 0.45,0 0.45,0 0,0 -0.3,-0.4 -0.3,-0.4 0,0 -2.05,-2.6 -2.05,-2.6 0,0 -0.2,-0.25 -0.2,-0.25 z m 17.55,0 c 0,0 -0.2,0.25 -0.2,0.25 0,0 -1.9,2.6 -1.9,2.6 0,0 -0.25,0.4 -0.25,0.4 0,0 0.45,0 0.45,0 0,0 0.75,0 0.75,0 0,0 0,10.6 0,10.6 0,0 0,0.25 0,0.25 0,0 0.2,0 0.2,0 0,0 1.9,0 1.9,0 0,0 0.25,0 0.25,0 0,0 0,-0.25 0,-0.25 0,0 0,-10.6 0,-10.6 0,0 0.85,0 0.85,0 0,0 0.5,0 0.5,0 0,0 -0.3,-0.4 -0.3,-0.4 0,0 -2.1,-2.6 -2.1,-2.6 0,0 -0.15,-0.25 -0.15,-0.25 z m 17.55,0 c 0,0 -0.2,0.25 -0.2,0.25 0,0 -1.9,2.6 -1.9,2.6 0,0 -0.25,0.4 -0.25,0.4 0,0 0.45,0 0.45,0 0,0 0.7,0 0.7,0 0,0 0,10.6 0,10.6 0,0 0,0.25 0,0.25 0,0 0.25,0 0.25,0 0,0 1.9,0 1.9,0 0,0 0.25,0 0.25,0 0,0 0,-0.25 0,-0.25 0,0 0,-10.6 0,-10.6 0,0 0.85,0 0.85,0 0,0 0.5,0 0.5,0 0,0 -0.3,-0.4 -0.3,-0.4 0,0 -2.1,-2.6 -2.1,-2.6 0,0 -0.15,-0.25 -0.15,-0.25 z m 8.75,0 c 0,0 -0.2,0.25 -0.2,0.25 0,0 -1.9,2.6 -1.9,2.6 0,0 -0.25,0.4 -0.25,0.4 0,0 0.45,0 0.45,0 0,0 0.75,0 0.75,0 0,0 0,10.6 0,10.6 0,0 0,0.25 0,0.25 0,0 0.2,0 0.2,0 0,0 1.95,0 1.95,0 0,0 0.2,0 0.2,0 0,0 0,-0.25 0,-0.25 0,0 0,-10.6 0,-10.6 0,0 0.9,0 0.9,0 0,0 0.45,0 0.45,0 0,0 -0.3,-0.4 -0.3,-0.4 0,0 -2.05,-2.6 -2.05,-2.6 0,0 -0.2,-0.25 -0.2,-0.25 z m 17.55,0 c 0,0 -0.2,0.25 -0.2,0.25 0,0 -1.9,2.6 -1.9,2.6 0,0 -0.25,0.4 -0.25,0.4 0,0 0.45,0 0.45,0 0,0 0.7,0 0.7,0 0,0 0,10.6 0,10.6 0,0 0,0.25 0,0.25 0,0 0.25,0 0.25,0 0,0 1.9,0 1.9,0 0,0 0.25,0 0.25,0 0,0 0,-0.25 0,-0.25 0,0 0,-10.6 0,-10.6 0,0 0.85,0 0.85,0 0,0 0.5,0 0.5,0 0,0 -0.3,-0.4 -0.3,-0.4 0,0 -2.1,-2.6 -2.1,-2.6 0,0 -0.15,-0.25 -0.15,-0.25 z m 8.75,0 c 0,0 -0.2,0.25 -0.2,0.25 0,0 -1.9,2.6 -1.9,2.6 0,0 -0.25,0.4 -0.25,0.4 0,0 0.45,0 0.45,0 0,0 0.75,0 0.75,0 0,0 0,10.6 0,10.6 0,0 0,0.25 0,0.25 0,0 0.2,0 0.2,0 0,0 1.95,0 1.95,0 0,0 0.2,0 0.2,0 0,0 0,-0.25 0,-0.25 0,0 0,-10.6 0,-10.6 0,0 0.9,0 0.9,0 0,0 0.45,0 0.45,0 0,0 -0.3,-0.4 -0.3,-0.4 0,0 -2.05,-2.6 -2.05,-2.6 0,0 -0.2,-0.25 -0.2,-0.25 z m 17.55,0 c 0,0 -0.2,0.25 -0.2,0.25 0,0 -1.9,2.6 -1.9,2.6 0,0 -0.25,0.4 -0.25,0.4 0,0 0.45,0 0.45,0 0,0 0.75,0 0.75,0 0,0 0,10.6 0,10.6 0,0 0,0.25 0,0.25 0,0 0.2,0 0.2,0 0,0 1.9,0 1.9,0 0,0 0.25,0 0.25,0 0,0 0,-0.25 0,-0.25 0,0 0,-10.6 0,-10.6 0,0 0.85,0 0.85,0 0,0 0.5,0 0.5,0 0,0 -0.3,-0.4 -0.3,-0.4 0,0 -2.1,-2.6 -2.1,-2.6 0,0 -0.15,-0.25 -0.15,-0.25 z m 26.3,0 c 0,0 -0.2,0.25 -0.2,0.25 0,0 -1.9,2.6 -1.9,2.6 0,0 -0.25,0.4 -0.25,0.4 0,0 0.45,0 0.45,0 0,0 0.75,0 0.75,0 0,0 0,10.6 0,10.6 0,0 0,0.25 0,0.25 0,0 0.2,0 0.2,0 0,0 1.95,0 1.95,0 0,0 0.2,0 0.2,0 0,0 0,-0.25 0,-0.25 0,0 0,-10.6 0,-10.6 0,0 0.9,0 0.9,0 0,0 0.45,0 0.45,0 0,0 -0.3,-0.4 -0.3,-0.4 0,0 -2.05,-2.6 -2.05,-2.6 0,0 -0.2,-0.25 -0.2,-0.25 z M 1.2002,0.15 c 0,0 0,0.25 0,0.25 0,0 0,10.6 0,10.6 0,0 -0.75,0 -0.75,0 0,0 -0.4502,0 -0.4502,0 0,0 0.25,0.35 0.25,0.35 0,0 1.9004,2.65 1.9004,2.65 0,0 0.1992,0.25 0.1992,0.25 0,0 0.2002,-0.25 0.2002,-0.25 0,0 2.0498,-2.65 2.0498,-2.65 0,0 0.3008,-0.35 0.3008,-0.35 0,0 -0.4502,0 -0.4502,0 0,0 -0.9004,0 -0.9004,0 0,0 0,-10.6 0,-10.6 0,0 0,-0.25 0,-0.25 0,0 -0.2002,0 -0.2002,0 0,0 -1.9492,0 -1.9492,0 0,0 -0.2002,0 -0.2002,0 z m 17.5498,0 c 0,0 0,0.25 0,0.25 0,0 0,10.6 0,10.6 0,0 -0.75,0 -0.75,0 0,0 -0.4502,0 -0.4502,0 0,0 0.25,0.35 0.25,0.35 0,0 1.9004,2.65 1.9004,2.65 0,0 0.2002,0.25 0.2002,0.25 0,0 0.1494,-0.25 0.1494,-0.25 0,0 2.1006,-2.65 2.1006,-2.65 0,0 0.2998,-0.35 0.2998,-0.35 0,0 -0.5,0 -0.5,0 0,0 -0.8506,0 -0.8506,0 0,0 0,-10.6 0,-10.6 0,0 0,-0.25 0,-0.25 0,0 -0.25,0 -0.25,0 0,0 -1.8994,0 -1.8994,0 0,0 -0.2002,0 -0.2002,0 z m 17.5,0 c 0,0 0,0.25 0,0.25 0,0 0,10.6 0,10.6 0,0 -0.7002,0 -0.7002,0 0,0 -0.4502,0 -0.4502,0 0,0 0.25,0.35 0.25,0.35 0,0 1.9004,2.65 1.9004,2.65 0,0 0.2002,0.25 0.2002,0.25 0,0 0.1494,-0.25 0.1494,-0.25 0,0 2.1006,-2.65 2.1006,-2.65 0,0 0.2998,-0.35 0.2998,-0.35 0,0 -0.5,0 -0.5,0 0,0 -0.8496,0 -0.8496,0 0,0 0,-10.6 0,-10.6 0,0 0,-0.25 0,-0.25 0,0 -0.25,0 -0.25,0 0,0 -1.9004,0 -1.9004,0 0,0 -0.25,0 -0.25,0 z m 35.0996,0 c 0,0 0,0.25 0,0.25 0,0 0,10.6 0,10.6 0,0 -0.75,0 -0.75,0 0,0 -0.4492,0 -0.4492,0 0,0 0.25,0.35 0.25,0.35 0,0 1.8996,2.65 1.8996,2.65 0,0 0.2,0.25 0.2,0.25 0,0 0.2,-0.25 0.2,-0.25 0,0 2.05,-2.65 2.05,-2.65 0,0 0.3,-0.35 0.3,-0.35 0,0 -0.45,0 -0.45,0 0,0 -0.9,0 -0.9,0 0,0 0,-10.6 0,-10.6 0,0 0,-0.25 0,-0.25 0,0 -0.2,0 -0.2,0 0,0 -1.9502,0 -1.9502,0 0,0 -0.2002,0 -0.2002,0 z m 26.3004,0 c 0,0 0,0.25 0,0.25 0,0 0,10.6 0,10.6 0,0 -0.7,0 -0.7,0 0,0 -0.45,0 -0.45,0 0,0 0.25,0.35 0.25,0.35 0,0 1.85,2.65 1.85,2.65 0,0 0.2,0.25 0.2,0.25 0,0 0.2,-0.25 0.2,-0.25 0,0 2.05,-2.65 2.05,-2.65 0,0 0.3,-0.35 0.3,-0.35 0,0 -0.45,0 -0.45,0 0,0 -0.9,0 -0.9,0 0,0 0,-10.6 0,-10.6 0,0 0,-0.25 0,-0.25 0,0 -0.2,0 -0.2,0 0,0 -1.95,0 -1.95,0 0,0 -0.2,0 -0.2,0 z m 17.55,0 c 0,0 0,0.25 0,0.25 0,0 0,10.6 0,10.6 0,0 -0.75,0 -0.75,0 0,0 -0.45,0 -0.45,0 0,0 0.25,0.35 0.25,0.35 0,0 1.9,2.65 1.9,2.65 0,0 0.2,0.25 0.2,0.25 0,0 0.2,-0.25 0.2,-0.25 0,0 2.05,-2.65 2.05,-2.65 0,0 0.3,-0.35 0.3,-0.35 0,0 -0.45,0 -0.45,0 0,0 -0.9,0 -0.9,0 0,0 0,-10.6 0,-10.6 0,0 0,-0.25 0,-0.25 0,0 -0.2,0 -0.2,0 0,0 -1.95,0 -1.95,0 0,0 -0.2,0 -0.2,0 z m 8.75,0 c 0,0 0,0.25 0,0.25 0,0 0,10.6 0,10.6 0,0 -0.7,0 -0.7,0 0,0 -0.45,0 -0.45,0 0,0 0.25,0.35 0.25,0.35 0,0 1.9,2.65 1.9,2.65 0,0 0.2,0.25 0.2,0.25 0,0 0.15,-0.25 0.15,-0.25 0,0 2.05,-2.65 2.05,-2.65 0,0 0.3,-0.35 0.3,-0.35 0,0 -0.45,0 -0.45,0 0,0 -0.85,0 -0.85,0 0,0 0,-10.6 0,-10.6 0,0 0,-0.25 0,-0.25 0,0 -0.25,0 -0.25,0 0,0 -1.9,0 -1.9,0 0,0 -0.25,0 -0.25,0 z m 17.55,0 c 0,0 0,0.25 0,0.25 0,0 0,10.6 0,10.6 0,0 -0.7,0 -0.7,0 0,0 -0.45,0 -0.45,0 0,0 0.25,0.35 0.25,0.35 0,0 1.85,2.65 1.85,2.65 0,0 0.2,0.25 0.2,0.25 0,0 0.2,-0.25 0.2,-0.25 0,0 2.05,-2.65 2.05,-2.65 0,0 0.3,-0.35 0.3,-0.35 0,0 -0.45,0 -0.45,0 0,0 -0.9,0 -0.9,0 0,0 0,-10.6 0,-10.6 0,0 0,-0.25 0,-0.25 0,0 -0.2,0 -0.2,0 0,0 -1.9,0 -1.9,0 0,0 -0.25,0 -0.25,0 z m 26.3,0 c 0,0 0,0.25 0,0.25 0,0 0,10.6 0,10.6 0,0 -0.7,0 -0.7,0 0,0 -0.45,0 -0.45,0 0,0 0.25,0.35 0.25,0.35 0,0 1.9,2.65 1.9,2.65 0,0 0.2,0.25 0.2,0.25 0,0 0.15,-0.25 0.15,-0.25 0,0 2.1,-2.65 2.1,-2.65 0,0 0.3,-0.35 0.3,-0.35 0,0 -0.5,0 -0.5,0 0,0 -0.85,0 -0.85,0 0,0 0,-10.6 0,-10.6 0,0 0,-0.25 0,-0.25 0,0 -0.25,0 -0.25,0 0,0 -1.9,0 -1.9,0 0,0 -0.25,0 -0.25,0 z m 17.55,0 c 0,0 0,0.25 0,0.25 0,0 0,10.6 0,10.6 0,0 -0.7,0 -0.7,0 0,0 -0.45,0 -0.45,0 0,0 0.25,0.35 0.25,0.35 0,0 1.85,2.65 1.85,2.65 0,0 0.2,0.25 0.2,0.25 0,0 0.2,-0.25 0.2,-0.25 0,0 2.05,-2.65 2.05,-2.65 0,0 0.3,-0.35 0.3,-0.35 0,0 -0.45,0 -0.45,0 0,0 -0.9,0 -0.9,0 0,0 0,-10.6 0,-10.6 0,0 0,-0.25 0,-0.25 0,0 -0.2,0 -0.2,0 0,0 -1.95,0 -1.95,0 0,0 -0.2,0 -0.2,0 z m 26.3,0 c 0,0 0,0.25 0,0.25 0,0 0,10.6 0,10.6 0,0 -0.7,0 -0.7,0 0,0 -0.45,0 -0.45,0 0,0 0.25,0.35 0.25,0.35 0,0 1.85,2.65 1.85,2.65 0,0 0.2,0.25 0.2,0.25 0,0 0.2,-0.25 0.2,-0.25 0,0 2.05,-2.65 2.05,-2.65 0,0 0.3,-0.35 0.3,-0.35 0,0 -0.45,0 -0.45,0 0,0 -0.9,0 -0.9,0 0,0 0,-10.6 0,-10.6 0,0 0,-0.25 0,-0.25 0,0 -0.2,0 -0.2,0 0,0 -1.9,0 -1.9,0 0,0 -0.25,0 -0.25,0 z m 26.3,0 c 0,0 0,0.25 0,0.25 0,0 0,10.6 0,10.6 0,0 -0.7,0 -0.7,0 0,0 -0.45,0 -0.45,0 0,0 0.25,0.35 0.25,0.35 0,0 1.9,2.65 1.9,2.65 0,0 0.2,0.25 0.2,0.25 0,0 0.15,-0.25 0.15,-0.25 0,0 2.1,-2.65 2.1,-2.65 0,0 0.3,-0.35 0.3,-0.35 0,0 -0.5,0 -0.5,0 0,0 -0.85,0 -0.85,0 0,0 0,-10.6 0,-10.6 0,0 0,-0.25 0,-0.25 0,0 -0.25,0 -0.25,0 0,0 -1.9,0 -1.9,0 0,0 -0.25,0 -0.25,0 z m 17.55,0 c 0,0 0,0.25 0,0.25 0,0 0,10.6 0,10.6 0,0 -0.7,0 -0.7,0 0,0 -0.45,0 -0.45,0 0,0 0.25,0.35 0.25,0.35 0,0 1.85,2.65 1.85,2.65 0,0 0.2,0.25 0.2,0.25 0,0 0.2,-0.25 0.2,-0.25 0,0 2.05,-2.65 2.05,-2.65 0,0 0.3,-0.35 0.3,-0.35 0,0 -0.45,0 -0.45,0 0,0 -0.9,0 -0.9,0 0,0 0,-10.6 0,-10.6 0,0 0,-0.25 0,-0.25 0,0 -0.2,0 -0.2,0 0,0 -1.95,0 -1.95,0 0,0 -0.2,0 -0.2,0 z m 8.75,0 c 0,0 0,0.25 0,0.25 0,0 0,10.6 0,10.6 0,0 -0.7,0 -0.7,0 0,0 -0.45,0 -0.45,0 0,0 0.25,0.35 0.25,0.35 0,0 1.9,2.65 1.9,2.65 0,0 0.2,0.25 0.2,0.25 0,0 0.15,-0.25 0.15,-0.25 0,0 2.1,-2.65 2.1,-2.65 0,0 0.3,-0.35 0.3,-0.35 0,0 -0.5,0 -0.5,0 0,0 -0.85,0 -0.85,0 0,0 0,-10.6 0,-10.6 0,0 0,-0.25 0,-0.25 0,0 -0.25,0 -0.25,0 0,0 -1.9,0 -1.9,0 0,0 -0.25,0 -0.25,0 z"
       id="path178"
       inkscape:connector-curvature="0" />
  </g>
  <path
     style="fill:none;fill-opacity:0.75;fill-rule:evenodd;stroke:#ffffff;stroke-width:4.31738472;stroke-linecap:butt;stroke-linejoin:miter;stroke-miterlimit:4;stroke-dasharray:none;stroke-opacity:1"
     d="m 88.233142,710.28229 c 0,113.40843 -37.91461,98.38107 -80.6567217,98.38107 -42.7421063,0 -81.7219223,-16.22099 -81.7219223,-99.40774"
     id="path5225"
     sodipodi:nodetypes="css"
     inkscape:connector-curvature="0" />
  <path
     style="fill:none;fill-opacity:0.75;fill-rule:evenodd;stroke:#ffffff;stroke-width:4.31738472;stroke-linecap:butt;stroke-linejoin:miter;stroke-miterlimit:4;stroke-dasharray:none;stroke-opacity:1"
     d="m 85.648838,710.02258 c 0,102.55885 -30.482581,87.97733 -64.750955,87.97733 -34.268305,0 -52.009059,-12.46678 -52.009059,-87.69517"
     id="path5227"
     sodipodi:nodetypes="css"
     inkscape:connector-curvature="0" />
  <path
     style="fill:none;fill-opacity:0.75;fill-rule:evenodd;stroke:#ffffff;stroke-width:4.31738472;stroke-linecap:butt;stroke-linejoin:miter;stroke-miterlimit:4;stroke-dasharray:none;stroke-opacity:1"
     d="m 82.734902,710.06989 c 0,77.56743 -20.92251,76.736 -41.643196,76.736 -20.720718,0 -32.6992157,-19.94753 -32.6992157,-76.84438"
     id="path5229"
     sodipodi:nodetypes="css"
     inkscape:connector-curvature="0" />
  <g
     id="g3445"
     transform="matrix(2.8494739,0,0,2.1586923,-268.52032,553.22376)">
    <path
       sodipodi:nodetypes="css"
       id="path3439"
       d="m 125.19977,72.756335 c 0,52.535705 -13.30583,45.574385 -28.305831,45.574385 -15,0 -28.679654,-7.51427 -28.679654,-46.049984"
       style="fill:none;fill-opacity:0.75;fill-rule:evenodd;stroke:#0019a8;stroke-width:1px;stroke-linecap:butt;stroke-linejoin:miter;stroke-opacity:1"
       inkscape:connector-curvature="0" />
    <path
       sodipodi:nodetypes="css"
       id="path3441"
       d="m 124.22624,72.548126 c 0,47.509714 -10.63103,40.842824 -22.65724,40.842824 -12.026187,0 -18.252163,-5.77516 -18.252163,-40.624214"
       style="fill:none;fill-opacity:0.75;fill-rule:evenodd;stroke:#0019a8;stroke-width:1;stroke-linecap:butt;stroke-linejoin:miter;stroke-miterlimit:4;stroke-dasharray:none;stroke-opacity:1"
       inkscape:connector-curvature="0" />
    <path
       sodipodi:nodetypes="css"
       id="path3443"
       d="m 123.27021,72.570041 c 0,35.932609 -7.34259,35.635349 -14.61435,35.635349 -7.27177,0 -11.475528,-9.240562 -11.475528,-35.597654"
       style="fill:none;fill-opacity:0.75;fill-rule:evenodd;stroke:#0019a8;stroke-width:1;stroke-linecap:butt;stroke-linejoin:miter;stroke-miterlimit:4;stroke-dasharray:none;stroke-opacity:1"
       inkscape:connector-curvature="0" />
  </g>
  <g
     transform="matrix(2.69385,0,0,2.69385,-93.6971,567.552)"
     id="g184"
     style="fill:#000000;fill-rule:nonzero;stroke:none;stroke-width:0.80000001;stroke-linecap:butt;stroke-linejoin:miter;stroke-dasharray:none">
    <path
       d="m -3.4712116e-7,0 c 0,0 0.15039999712116,0.55 0.15039999712116,0.55 0,0 8.12500005,30.425 8.12500005,30.425 0,0 -7.2256,21.325 -7.2256,21.325 0,0 -0.0244,0.075 -0.0244,0.075 0,0 0,0.075 0,0.075 0,0 0,0.3 0,0.3 0,0 0,0.45 0,0.45 0,0 0.4502,0 0.4502,0 0,0 39.6746003,0 39.6746003,0 0,0 0.45,0 0.45,0 0,0 0,-0.45 0,-0.45 0,0 0,-41.975 0,-41.975 0,0 11.528352,0 11.528352,0 0,0 0.45,0 0.45,0 0,0 0,-0.45 0,-0.45 0,0 0,-9.9 0,-9.9 0,0 0,-0.425 0,-0.425 0,0 -0.45,0 -0.45,0 0,0 -52.55335235,0 -52.55335235,0 0,0 -0.57519999712116,0 -0.57519999712116,0 z M 1.1503997,0.875 c 0,0 51.5281523,0 51.5281523,0 0,0 0,9.025 0,9.025 0,0 -11.528352,0 -11.528352,0 0,0 -0.425,0 -0.425,0 0,0 0,0.425 0,0.425 0,0 0,41.975 0,41.975 0,0 -38.7252003,0 -38.7252003,0 0,0 7.1504,-21.15 7.1504,-21.15 0,0 0.0498,-0.125 0.0498,-0.125 0,0 -0.0498,-0.125 -0.0498,-0.125 0,0 -8,-30.025 -8,-30.025 z"
       id="path186"
       sodipodi:nodetypes="ccccccccccccccccccccccccccccccccc"
       inkscape:connector-curvature="0" />
  </g>
  <g
     transform="matrix(2.69385,0,0,2.69385,550.874,737.265)"
     id="g188"
     style="fill:#000000;fill-rule:evenodd;stroke:none;stroke-width:0.80000001;stroke-linecap:butt;stroke-linejoin:miter;stroke-dasharray:none">
    <path
       d="m 4.2,0 c 0,0 -0.6,0.675 -0.6,0.675 0,0 -3.4,3.625 -3.4,3.625 0,0 -0.2,0.25 -0.2,0.25 0,0 0.2,0.225 0.2,0.225 0,0 3.4,3.3 3.4,3.3 0,0 0.6,0.6 0.6,0.6 0,0 0,-0.85 0,-0.85 0,0 0,-1.3 0,-1.3 0,0 13.6,0 13.6,0 0,0 0.35,0 0.35,0 0,0 0,-0.35 0,-0.35 0,0 0,-3.35 0,-3.35 0,0 0,-0.35 0,-0.35 0,0 -0.35,0 -0.35,0 0,0 -13.6,0 -13.6,0 0,0 0,-1.575 0,-1.575 0,0 0,-0.9 0,-0.9 z m 0,19.3 c 0,0 -0.6,0.675 -0.6,0.675 0,0 -3.4,3.625 -3.4,3.625 0,0 -0.2,0.25 -0.2,0.25 0,0 0.2,0.225 0.2,0.225 0,0 3.4,3.325 3.4,3.325 0,0 0.6,0.6 0.6,0.6 0,0 0,-0.85 0,-0.85 0,0 0,-1.325 0,-1.325 0,0 13.65,0 13.65,0 0,0 0.35,0 0.35,0 0,0 0,-0.35 0,-0.35 0,0 0,-3.35 0,-3.35 0,0 0,-0.35 0,-0.35 0,0 -0.35,0 -0.35,0 0,0 -13.65,0 -13.65,0 0,0 0,-1.575 0,-1.575 0,0 0,-0.9 0,-0.9 z"
       id="path190"
       inkscape:connector-curvature="0" />
  </g>
  <g
     transform="matrix(2.69385,0,0,2.69385,-202.057,292.39735)"
     id="g220"
     style="fill:#000000;fill-rule:evenodd;stroke:none;stroke-width:0.80000001;stroke-linecap:butt;stroke-linejoin:miter;stroke-dasharray:none">
    <path
       d="m 4.7002,0 c 0,0 -0.6504,0.475 -0.6504,0.475 0,0 -3.5996,2.6 -3.5996,2.6 C 0.4502,3.075 0,3.4 0,3.4 c 0,0 0.4502,0.325 0.4502,0.325 0,0 3.5996,2.6 3.5996,2.6 0,0 0.6504,0.475 0.6504,0.475 0,0 0,-0.8 0,-0.8 0,0 0,-1.1 0,-1.1 0,0 22.2246,0 22.2246,0 0,0 0.2002,0 0.2002,0 0,0 0.125,-0.125 0.125,-0.125 0,0 0.1309,-0.199 0.2744,-0.45 0.1436,-0.251 0.3008,-0.574 0.3008,-0.975 0,-0.8 -0.6006,-1.35 -0.6006,-1.35 0,0 -0.125,-0.1 -0.125,-0.1 0,0 -0.1748,0 -0.1748,0 0,0 -22.2246,0 -22.2246,0 0,0 0,-1.1 0,-1.1 0,0 0,-0.8 0,-0.8 z m 35.1992,0 c 0,0 -0.6494,0.475 -0.6494,0.475 0,0 -3.6006,2.6 -3.6006,2.6 0,0 -0.4492,0.325 -0.4492,0.325 0,0 0.4492,0.325 0.4492,0.325 0,0 3.6006,2.6 3.6006,2.6 0,0 0.6494,0.475 0.6494,0.475 0,0 0,-0.8 0,-0.8 0,0 0,-1.1 0,-1.1 0,0 22.2256,0 22.2256,0 0,0 0.2002,0 0.2002,0 0,0 0.125,-0.125 0.125,-0.125 0,0 0.1309,-0.199 0.2744,-0.45 0.1436,-0.251 0.2998,-0.574 0.2998,-0.975 0,-0.8 -0.5996,-1.35 -0.5996,-1.35 0,0 -0.125,-0.1 -0.125,-0.1 0,0 -0.1748,0 -0.1748,0 0,0 -22.2256,0 -22.2256,0 0,0 0,-1.1 0,-1.1 0,0 0,-0.8 0,-0.8 z m 54.1004,0 c 0,0 0,0.8 0,0.8 0,0 0,1.1 0,1.1 0,0 -22.225,0 -22.225,0 0,0 -0.175,0 -0.175,0 0,0 -0.125,0.125 -0.125,0.125 0,0 -0.575,0.536 -0.575,1.325 0,0.788 0.55,1.4 0.55,1.4 0,0 0.125,0.15 0.125,0.15 0,0 0.2,0 0.2,0 0,0 22.225,0 22.225,0 0,0 0,1.1 0,1.1 0,0 0,0.8 0,0.8 0,0 0.65,-0.475 0.65,-0.475 0,0 3.6,-2.6 3.6,-2.6 0,0 0.45,-0.325 0.45,-0.325 0,0 -0.45,-0.325 -0.45,-0.325 0,0 -3.6,-2.6 -3.6,-2.6 0,0 -0.65,-0.475 -0.65,-0.475 z M 110.25,0 c 0,0 -0.65,0.475 -0.65,0.475 0,0 -3.625,2.6 -3.625,2.6 0,0 -0.45,0.325 -0.45,0.325 0,0 0.45,0.325 0.45,0.325 0,0 3.625,2.6 3.625,2.6 0,0 0.65,0.475 0.65,0.475 0,0 0,-0.8 0,-0.8 0,0 0,-1.1 0,-1.1 0,0 22.225,0 22.225,0 0,0 0.2,0 0.2,0 0,0 0.125,-0.15 0.125,-0.15 0,0 0.55,-0.612 0.55,-1.4 0,-0.789 -0.575,-1.325 -0.575,-1.325 0,0 -0.125,-0.125 -0.125,-0.125 0,0 -0.175,0 -0.175,0 0,0 -22.225,0 -22.225,0 0,0 0,-1.1 0,-1.1 0,0 0,-0.8 0,-0.8 z m 35.2,0 c 0,0 -0.65,0.475 -0.65,0.475 0,0 -3.625,2.6 -3.625,2.6 0,0 -0.45,0.325 -0.45,0.325 0,0 0.45,0.325 0.45,0.325 0,0 3.625,2.6 3.625,2.6 0,0 0.65,0.475 0.65,0.475 0,0 0,-0.8 0,-0.8 0,0 0,-1.1 0,-1.1 0,0 22.225,0 22.225,0 0,0 0.2,0 0.2,0 0,0 0.125,-0.15 0.125,-0.15 0,0 0.55,-0.612 0.55,-1.4 0,-0.789 -0.575,-1.325 -0.575,-1.325 0,0 -0.125,-0.125 -0.125,-0.125 0,0 -0.175,0 -0.175,0 0,0 -22.225,0 -22.225,0 0,0 0,-1.1 0,-1.1 0,0 0,-0.8 0,-0.8 z m 54.15,0 c 0,0 0,0.8 0,0.8 0,0 0,1.1 0,1.1 0,0 -22.225,0 -22.225,0 0,0 -0.175,0 -0.175,0 0,0 -0.125,0.125 -0.125,0.125 0,0 -0.575,0.536 -0.575,1.325 0,0.788 0.55,1.4 0.55,1.4 0,0 0.125,0.15 0.125,0.15 0,0 0.2,0 0.2,0 0,0 22.225,0 22.225,0 0,0 0,1.1 0,1.1 0,0 0,0.8 0,0.8 0,0 0.65,-0.475 0.65,-0.475 0,0 3.625,-2.6 3.625,-2.6 0,0 0.45,-0.325 0.45,-0.325 0,0 -0.45,-0.325 -0.45,-0.325 0,0 -3.625,-2.6 -3.625,-2.6 0,0 -0.65,-0.475 -0.65,-0.475 z m 16.25,0 c 0,0 -0.65,0.475 -0.65,0.475 0,0 -3.6,2.6 -3.6,2.6 0,0 -0.45,0.325 -0.45,0.325 0,0 0.45,0.325 0.45,0.325 0,0 3.6,2.6 3.6,2.6 0,0 0.65,0.475 0.65,0.475 0,0 0,-0.8 0,-0.8 0,0 0,-1.1 0,-1.1 0,0 22.225,0 22.225,0 0,0 0.2,0 0.2,0 0,0 0.125,-0.15 0.125,-0.15 0,0 0.55,-0.612 0.55,-1.4 0,-0.789 -0.575,-1.325 -0.575,-1.325 0,0 -0.125,-0.125 -0.125,-0.125 0,0 -0.175,0 -0.175,0 0,0 -22.225,0 -22.225,0 0,0 0,-1.1 0,-1.1 0,0 0,-0.8 0,-0.8 z m 54.175,0 c 0,0 0,0.8 0,0.8 0,0 0,1.1 0,1.1 0,0 -22.225,0 -22.225,0 0,0 -0.175,0 -0.175,0 0,0 -0.125,0.1 -0.125,0.1 0,0 -0.6,0.55 -0.6,1.35 0,0.401 0.157,0.724 0.3,0.975 0.144,0.251 0.275,0.45 0.275,0.45 0,0 0.125,0.125 0.125,0.125 0,0 0.2,0 0.2,0 0,0 22.225,0 22.225,0 0,0 0,1.1 0,1.1 0,0 0,0.8 0,0.8 0,0 0.65,-0.475 0.65,-0.475 0,0 3.6,-2.6 3.6,-2.6 0,0 0.45,-0.325 0.45,-0.325 0,0 -0.45,-0.325 -0.45,-0.325 0,0 -3.6,-2.6 -3.6,-2.6 0,0 -0.65,-0.475 -0.65,-0.475 z"
       id="path222"
       inkscape:connector-curvature="0" />
  </g>
  <g
     transform="matrix(2.69385,0,0,2.69385,59.9197,567.485)"
     id="g224"
     style="fill:#000000;fill-rule:nonzero;stroke:none;stroke-width:0.80000001;stroke-linecap:butt;stroke-linejoin:miter;stroke-dasharray:none">
    <path
       d="m 2.0033523,0 c 0,0 0,0.45 0,0.45 0,0 0,9.85 0,9.85 0,0 0,0.45 0,0.45 0,0 0.45,0 0.45,0 0,0 8.2966477,0 8.2966477,0 0,0 -1.85,35.2 -1.85,35.2 0,0 0,0.025 0,0.025 0,0 -0.85,7.2 -0.85,7.2 0,0 2.853352,0.04325 2.853352,0.04325 0,0 4.271648,-8.793254 4.271648,-8.793254 0,0 0.05,-0.075 0.05,-0.075 0,0 0.025,-0.125 0.025,-0.125 0,0 3.35,-33.475 3.35,-33.475 0,0 1.675,0 1.675,0 0,0 0.475,0 0.475,0 0,0 0,-0.45 0,-0.45 0,0 0,-9.85 0,-9.85 0,0 0,-0.45 0,-0.45 0,0 -0.475,0 -0.475,0 0,0 -17.8216477,0 -17.8216477,0 0,0 -0.45,0 -0.45,0 z m 0.925,0.925 c 0,0 16.8966477,0 16.8966477,0 0,0 0,8.9 0,8.9 0,0 -1.625,0 -1.625,0 0,0 -0.425,0 -0.425,0 0,0 -0.05,0.425 -0.05,0.425 0,0 -3.375,33.75 -3.375,33.75 l -3.874998,8.372642 -1.5240324,0.02367 c 0,0 0.8740304,-6.346316 0.8740304,-6.346316 0,0 0,-0.025 0,-0.025 0,0 1.875,-35.7 1.875,-35.7 0,0 0.025,-0.5 0.025,-0.5 0,0 -0.5,0 -0.5,0 0,0 -8.2966477,0 -8.2966477,0 0,0 0,-8.9 0,-8.9 z"
       id="path226"
       sodipodi:nodetypes="cccccccccccccccccccccccccccccccccccccc"
       inkscape:connector-curvature="0" />
  </g>
  <g
     transform="matrix(2.69385,0,0,2.69385,79.1377,618.383)"
     id="g228"
     style="fill:#ff0000;fill-rule:nonzero;stroke:none;stroke-width:0.80000001;stroke-linecap:butt;stroke-linejoin:miter;stroke-dasharray:none">
    <path
       d="m 1.755,0 c 0,0 10.948,0 10.948,0 0.972,0 1.755,0.617 1.755,1.385 0,0.767 -0.783,1.384 -1.755,1.384 0,0 -10.948,0 -10.948,0 C 0.782,2.769 0,2.152 0,1.385 0,0.617 0.782,0 1.755,0 Z"
       id="path230"
       inkscape:connector-curvature="0" />
  </g>
  <g
     transform="matrix(2.69385,0,0,2.69385,79.1377,635.596)"
     id="g232"
     style="fill:#ff0000;fill-rule:nonzero;stroke:none;stroke-width:0.80000001;stroke-linecap:butt;stroke-linejoin:miter;stroke-dasharray:none">
    <path
       d="m 1.755,0 c 0,0 10.056,0 10.056,0 0.971,0 1.753,0.591 1.753,1.327 0,0.734 -0.782,1.327 -1.753,1.327 0,0 -10.056,0 -10.056,0 C 0.782,2.654 0,2.061 0,1.327 0,0.591 0.782,0 1.755,0 Z"
       id="path234"
       inkscape:connector-curvature="0" />
  </g>
  <g
     transform="matrix(2.69385,0,0,2.69385,79.2697,650.027)"
     id="g236"
     style="fill:#ff0000;fill-rule:nonzero;stroke:none;stroke-width:0.80000001;stroke-linecap:butt;stroke-linejoin:miter;stroke-dasharray:none">
    <path
       d="m 1.789,0 c 0,0 9.053,0 9.053,0 0.991,0 1.789,0.603 1.789,1.352 0,0.748 -0.798,1.351 -1.789,1.351 0,0 -9.053,0 -9.053,0 C 0.798,2.703 0,2.1 0,1.352 0,0.603 0.798,0 1.789,0 Z"
       id="path238"
       inkscape:connector-curvature="0" />
  </g>
  <g
     transform="matrix(2.69385,0,0,2.69385,76.7536,664.59)"
     id="g240"
     style="fill:#ff0000;fill-rule:nonzero;stroke:none;stroke-width:0.80000001;stroke-linecap:butt;stroke-linejoin:miter;stroke-dasharray:none">
    <path
       d="m 2.198,0 c 0,0 8.284,0 8.284,0 1.217,0 2.198,0.603 2.198,1.352 0,0.749 -0.981,1.351 -2.198,1.351 0,0 -8.284,0 -8.284,0 C 0.981,2.703 0,2.101 0,1.352 0,0.603 0.981,0 2.198,0 Z"
       id="path242"
       inkscape:connector-curvature="0" />
  </g>
  <path
     style="fill:none;fill-rule:evenodd;stroke:#ffffff;stroke-width:4.31738472;stroke-linecap:butt;stroke-linejoin:miter;stroke-miterlimit:4;stroke-dasharray:none"
     sodipodi:nodetypes="csccscczc"
     id="path5236"
     d="m -104.47624,271.62785 c 0.50539,30.42639 21.160609,40.85125 34.686386,41.78799 13.390248,0.92789 34.491279,-7.38664 36.4079,-41.78799 m -66.550166,0 c 3.569179,24.7918 19.036417,31.66058 30.767854,32.15547 11.486984,0.48427 26.413546,-4.90869 30.527444,-32.15547 m -56.447866,0 c 3.805588,19.0176 16.655247,22.60091 24.669246,22.56712 8.167644,-0.0344 22.438576,-2.06488 26.181044,-22.56712"
     inkscape:connector-curvature="0" />
  <g
     transform="matrix(1.5902176,0,0,1.7674349,-108.59946,271.62786)"
     id="g20"
     style="fill:#0019a8;fill-rule:evenodd;stroke:none;stroke-width:0.80000001;stroke-linecap:butt;stroke-linejoin:miter;stroke-dasharray:none">
    <path
       d="M 2.5930119,0 C 2.9108267,17.215 15.899751,23.113295 24.405366,23.643295 32.825753,24.168295 46.095029,19.464 47.300285,0 M 5.450559,0 C 7.6950115,14.027 17.421509,17.913295 24.798763,18.193295 32.022293,18.467295 41.408786,15.416 43.995788,0 M 8.4988431,-3.4712112e-7 C 10.891969,10.76 18.622705,12.688131 24.011968,12.768295 29.594393,12.851332 38.12235,11.6 40.475781,0"
       id="path22"
       sodipodi:nodetypes="csccscczc"
       style="fill:none;stroke:#000080;stroke-width:1.28505373;stroke-miterlimit:4;stroke-dasharray:none"
       inkscape:connector-curvature="0" />
  </g>
  <g
     transform="matrix(2.69385,0,0,2.69385,-167.69068,93.547157)"
     id="g44"
     style="fill:#000000;fill-rule:nonzero;stroke:none;stroke-width:0.80000001;stroke-linecap:butt;stroke-linejoin:miter;stroke-dasharray:none">
    <path
       d="m 3.3471211e-7,0 c 0,0 0,0.4248 0,0.4248 C -0.04402176,3.8197049 0.02440033,3.1781049 0.02440033,6.5397433 c 0,0 0,0.1504 0,0.1504 0,0 0.1006,0.125 0.1006,0.125 0,0 12.68914367,21.4491997 12.68914367,21.4491997 0,0 -10.9391437,21.8008 -10.9391437,21.8008 0,0 -0.0752,0.0996 -0.0752,0.0996 0,0 0,0.1504 0,0.1504 -0.029744,3.307736 -0.0254,12.640973 -0.0254,15.984657 0,0 0,0.4248 0,0.4248 0,0 13.0763497,-2.29e-4 13.0763497,-2.29e-4 2.069924,0 12.162693,2.29e-4 14.232617,2.29e-4 L 28.980808,56.397491 h -5.9017 L 23.096248,33.75 c 0,0 0,-9.1504 0,-9.1504 0,0 0,-12.746648 0,-12.746648 0,0 12.102151,0 12.102151,0 0,0 0,0 0,0 0,0 0,-0.4248 0,-0.4248 0,0 0,-11.003352 0,-11.003352 0,0 0,-0.4248 0,-0.4248 0,0 0,0 0,0 0,0 -34.77359867,0 -34.77359867,0 0,0 -0.42479999528789,0 -0.42479999528789,0 z M 0.84960033,0.8496 c 0,0 33.54744567,0 33.54744567,0 0,0 0,10.153752 0,10.153752 0,0 -11.725598,0 -11.725598,0 0,0 -0.4248,0 -0.4248,0 0,0 0,0.4248 0,0.4248 0,0 0,13.171448 0,13.171448 0,0 0,9.1504 0,9.1504 l -0.01827,23.582848 h 5.926 l 0.07956,8.542152 -13.062658,-5e-5 -12.5462867,-0.08013 c 0.012576,-3.141588 0.022993,-12.213058 0.0244,-15.354673 0,0 11.0651437,-21.9258 11.0651437,-21.9258 0,0 0.2246,-0.2744 0.2246,-0.2744 0,0 -0.2246,-0.25 -0.2246,-0.25 0,0 -12.83954367,-21.6005997 -12.83954367,-21.6005997 -0.002224,-3.2025166 -0.0254,-2.3233076 -0.0254,-5.5397433 z"
       id="path46"
       sodipodi:nodetypes="ccccccccccccccccccccccccccccccccccccccccccccc"
       style="fill:#000000;stroke:none"
       inkscape:connector-curvature="0" />
  </g>
  <g
     transform="matrix(2.69385,0,0,2.69385,-70.858103,93.547157)"
     id="g24"
     style="fill:#000000;fill-rule:nonzero;stroke:none;stroke-width:0.80000001;stroke-linecap:butt;stroke-linejoin:miter;stroke-dasharray:none">
    <path
       d="m 4.0067047,0 c 0,0 0,0.4248 0,0.4248 0,0 0,11.003352 0,11.003352 0,0 0,0.4248 0,0.4248 0,0 0.4258,0 0.4258,0 0,0 9.0928953,0 9.0928953,0 l -0.05582,44.533577 H 7.4735623 L 7.4487209,66.2998 c 0,0 0,0.4248 0,0.4248 0,0 0,0 0,0 H 21.840002 33.2254 c 0,0 0,-0.4248 0,-0.4248 0,0 0,-5.171447 0,-5.171447 0,0 0,-0.4248 0,-0.4248 0,0 -0.025,0 -0.025,0 0,0 0,-50.853953 0,-50.853953 0,0 0.025,0 0.025,0 0,0 0,-0.4248 0,-0.4248 0,0 0,-9 0,-9 0,0 0,-0.4248 0,-0.4248 0,0 -0.425,0 -0.425,0 0,0 -28.3678953,0 -28.3678953,0 0,0 -0.4258,0 -0.4258,0 z m 0.8506,0.8496 c 0,0 27.5180953,0 27.5180953,0 0,0 0,8.1504 0,8.1504 0,0 -0.025,0 -0.025,0 0,0 0,0.4248 0,0.4248 0,0 0,51.703553 0,51.703553 0,0 0,0.4248 0,0.4248 0,0 0.025,0 0.025,0 0,0 0,4.321797 0,4.321797 l -10.814264,5e-5 H 8.3269899 l 0.00744,-8.542152 H 14.373106 L 14.375,12.374472 c 0,0 0,-1.37112 0,-1.37112 0,0 -0.4248,0 -0.4248,0 0,0 -9.0928953,0 -9.0928953,0 0,0 0,-10.153752 0,-10.153752 z"
       id="path26"
       sodipodi:nodetypes="ccccccccccccccccccccccccccccccccccccccccccc"
       inkscape:connector-curvature="0" />
  </g>
  <g
     transform="matrix(2.69385,0,0,2.69385,-39.450403,161.11892)"
     id="g28"
     style="fill:#ff0000;fill-rule:nonzero;stroke:none;stroke-width:0.80000001;stroke-linecap:butt;stroke-linejoin:miter;stroke-dasharray:none">
    <path
       d="m 0,0 c 0,0 23.5352,0 23.5352,0 0,0 0,2.6807 0,2.6807 0,0 -23.5352,0 -23.5352,0 C 0,2.6807 0,0 0,0 Z"
       id="path30"
       inkscape:connector-curvature="0" />
  </g>
  <g
     transform="matrix(2.69385,0,0,2.69385,-39.450403,175.56092)"
     id="g32"
     style="fill:#ff0000;fill-rule:nonzero;stroke:none;stroke-width:0.80000001;stroke-linecap:butt;stroke-linejoin:miter;stroke-dasharray:none">
    <path
       d="m 0,0 c 0,0 23.5352,0 23.5352,0 0,0 0,2.6806 0,2.6806 0,0 -23.5352,0 -23.5352,0 C 0,2.6806 0,0 0,0 Z"
       id="path34"
       inkscape:connector-curvature="0" />
  </g>
  <g
     transform="matrix(2.69385,0,0,2.69385,-39.450403,190.24492)"
     id="g36"
     style="fill:#ff0000;fill-rule:nonzero;stroke:none;stroke-width:0.80000001;stroke-linecap:butt;stroke-linejoin:miter;stroke-dasharray:none">
    <path
       d="m 0,0 c 0,0 23.5352,0 23.5352,0 0,0 0,2.6807 0,2.6807 0,0 -23.5352,0 -23.5352,0 C 0,2.6807 0,0 0,0 Z"
       id="path38"
       inkscape:connector-curvature="0" />
  </g>
  <g
     transform="matrix(2.69385,0,0,2.69385,-39.450403,204.80792)"
     id="g40"
     style="fill:#ff0000;fill-rule:nonzero;stroke:none;stroke-width:0.80000001;stroke-linecap:butt;stroke-linejoin:miter;stroke-dasharray:none">
    <path
       d="m 0,0 c 0,0 23.5352,0 23.5352,0 0,0 0,2.6806 0,2.6806 0,0 -23.5352,0 -23.5352,0 C 0,2.6806 0,0 0,0 Z"
       id="path42"
       inkscape:connector-curvature="0" />
  </g>
  <text
     xml:space="preserve"
     style="font-style:normal;font-weight:normal;font-size:21.5869236px;line-height:40.47547913px;font-family:sans-serif;letter-spacing:0px;word-spacing:0px;fill:#000000;fill-opacity:1;stroke:none;stroke-width:2.02377391"
     x="391.72672"
     y="641.84918"
     id="text943"><tspan
       sodipodi:role="line"
       id="tspan941"
       x="391.72672"
       y="668.28949"
       style="stroke-width:2.02377391" /></text>
  <text
     xml:space="preserve"
     style="font-style:normal;font-weight:normal;font-size:21.5869236px;line-height:40.47547913px;font-family:sans-serif;letter-spacing:0px;word-spacing:0px;fill:#000000;fill-opacity:1;stroke:none;stroke-width:2.02377391"
     x="-210.59634"
     y="-27.532309"
     id="text947"><tspan
       sodipodi:role="line"
       id="tspan945"
       x="-210.59634"
       y="-1.0919914"
       style="stroke-width:2.02377391"></tspan></text>
  <text
     xml:space="preserve"
     style="font-style:normal;font-weight:normal;font-size:32.38038635px;line-height:40.47547913px;font-family:sans-serif;letter-spacing:0px;word-spacing:0px;fill:#000000;fill-opacity:1;stroke:none;stroke-width:2.02377391"
     x="-188.45828"
     y="46.932098"
     id="text951"><tspan
       sodipodi:role="line"
       id="tspan949"
       x="-188.45828"
       y="46.932098"
       style="font-style:normal;font-variant:normal;font-weight:normal;font-stretch:normal;font-family:Arial;-inkscape-font-specification:Arial;stroke-width:2.02377391">&quot;Ring&quot; writing element</tspan></text>
  <text
     xml:space="preserve"
     style="font-style:normal;font-variant:normal;font-weight:bold;font-stretch:condensed;font-size:35.07875061px;line-height:40.47547913px;font-family:Arial;-inkscape-font-specification:'Arial Bold Condensed';letter-spacing:0px;word-spacing:0px;fill:#000000;fill-opacity:1;stroke:none;stroke-width:2.02377391"
     x="71.160881"
     y="187.81073"
     id="text955"><tspan
       sodipodi:role="line"
       id="tspan953"
       x="71.160881"
       y="187.81073"
       style="font-style:normal;font-variant:normal;font-weight:bold;font-stretch:condensed;font-family:Arial;-inkscape-font-specification:'Arial Bold Condensed';stroke-width:2.02377391">Longitudal recording (standard)</tspan></text>
  <text
     xml:space="preserve"
     style="font-style:normal;font-variant:normal;font-weight:normal;font-stretch:condensed;font-size:35.07875061px;line-height:40.47547913px;font-family:Arial;-inkscape-font-specification:'Arial Condensed';letter-spacing:0px;word-spacing:0px;fill:#000000;fill-opacity:1;stroke:none;stroke-width:2.02377391"
     x="566.24854"
     y="312.58893"
     id="text959"><tspan
       sodipodi:role="line"
       id="tspan957"
       x="566.24854"
       y="312.58893"
       style="font-style:normal;font-variant:normal;font-weight:normal;font-stretch:condensed;font-family:Arial;-inkscape-font-specification:'Arial Condensed';stroke-width:2.02377391">Recording layer</tspan></text>
  <text
     xml:space="preserve"
     style="font-style:normal;font-variant:normal;font-weight:normal;font-stretch:normal;font-size:32.38038635px;line-height:40.47547913px;font-family:Arial;-inkscape-font-specification:Arial;letter-spacing:0px;word-spacing:0px;fill:#000000;fill-opacity:1;stroke:none;stroke-width:2.02377391"
     x="-166.32021"
     y="537.99469"
     id="text963"><tspan
       sodipodi:role="line"
       id="tspan961"
       x="-166.32021"
       y="537.99469"
       style="font-style:normal;font-variant:normal;font-weight:normal;font-stretch:normal;font-family:Arial;-inkscape-font-specification:Arial;stroke-width:2.02377391">&quot;Monopole&quot; writing element</tspan></text>
  <text
     xml:space="preserve"
     style="font-style:normal;font-variant:normal;font-weight:bold;font-stretch:condensed;font-size:35.07875061px;line-height:40.47547913px;font-family:Arial;-inkscape-font-specification:'Arial Bold Condensed';letter-spacing:0px;word-spacing:0px;fill:#000000;fill-opacity:1;stroke:none;stroke-width:2.02377391"
     x="167.76337"
     y="648.68506"
     id="text967"><tspan
       sodipodi:role="line"
       id="tspan965"
       x="167.76337"
       y="648.68506"
       style="font-style:normal;font-variant:normal;font-weight:bold;font-stretch:condensed;font-family:Arial;-inkscape-font-specification:'Arial Bold Condensed';stroke-width:2.02377391">Perpendicular recording</tspan></text>
  <text
     xml:space="preserve"
     style="font-style:normal;font-variant:normal;font-weight:normal;font-stretch:condensed;font-size:35.07875061px;line-height:40.47547913px;font-family:Arial;-inkscape-font-specification:'Arial Condensed';letter-spacing:0px;word-spacing:0px;fill:#000000;fill-opacity:1;stroke:none;stroke-width:2.02377391"
     x="607.00372"
     y="756.164"
     id="text959-0"><tspan
       sodipodi:role="line"
       id="tspan957-6"
       x="607.00372"
       y="756.164"
       style="font-style:normal;font-variant:normal;font-weight:normal;font-stretch:condensed;font-family:Arial;-inkscape-font-specification:'Arial Condensed';stroke-width:2.02377391">Recording layer</tspan></text>
  <text
     xml:space="preserve"
     style="font-style:normal;font-variant:normal;font-weight:normal;font-stretch:condensed;font-size:35.07875061px;line-height:40.47547913px;font-family:Arial;-inkscape-font-specification:'Arial Condensed';letter-spacing:0px;word-spacing:0px;fill:#000000;fill-opacity:1;stroke:none;stroke-width:2.02377391"
     x="607.00372"
     y="808.4903"
     id="text959-5"><tspan
       sodipodi:role="line"
       id="tspan957-2"
       x="607.00372"
       y="808.4903"
       style="font-style:normal;font-variant:normal;font-weight:normal;font-stretch:condensed;font-family:Arial;-inkscape-font-specification:'Arial Condensed';stroke-width:2.02377391">Additional layer</tspan></text>
</svg>
